<?xml version="1.0" encoding="utf-8"?>
<!-- Generator: Adobe Illustrator 21.1.0, SVG Export Plug-In . SVG Version: 6.00 Build 0)  -->
<svg version="1.1" id="圖層_1" xmlns="http://www.w3.org/2000/svg" xmlns:xlink="http://www.w3.org/1999/xlink" x="0px" y="0px"
	 viewBox="0 0 1280 1024" style="enable-background:new 0 0 1280 1024;" xml:space="preserve">
<style type="text/css">
	.st0{fill:#FFFFFF;}
	.st1{fill:#212121;}
	.st2{fill:#F3DE6B;}
	.st3{fill:#F08B8C;}
</style>
<g>
	<circle class="st0" cx="53.5" cy="31.5" r="17.5"/>
	<path class="st1" d="M53.5,49.5c-9.9,0-18-8.1-18-18s8.1-18,18-18s18,8.1,18,18S63.4,49.5,53.5,49.5z M53.5,14.5
		c-9.4,0-17,7.6-17,17s7.6,17,17,17s17-7.6,17-17S62.9,14.5,53.5,14.5z"/>
</g>
<g>
	<path class="st2" d="M63,20c0,0,6,6,5,13s-3,11,3,14s18-2,27,2s12,10,10,18S86,81,92,83s16-6,25-2s16,11,10,20s-2,9,5,9s33-6,46,13
		s7,29,0,37s-21,13-35,4s2-20-18-20s-29,9-44,8s-20-8-18-21s-10-5-20-2s-28,9-37-4s-1-25,7-30s12-7,16-9s10-5,11-8s-3-2-7-4
		s-8-13,4-18c6-2,11-2,11-7s-8-7-8-7V29l10-8C50,21,52,19,63,20z"/>
</g>
<g>
	<path class="st0" d="M67,21c-0.4-0.3,0.6-0.1,0.2-0.4l-20.7-16c-7.4-5.8-18.1-4.4-23.9,3v0c-5.8,7.4-4.4,18.1,3,23.9l15.1,11.7
		c-1.7-4.9-2.2-11.6,3.9-17.7C55.7,14.5,66.5,20.7,67,21z"/>
	<path class="st1" d="M40.8,43.7c-0.1,0-0.2,0-0.3-0.1L25.4,31.9c-3.7-2.9-6.1-7-6.7-11.7c-0.6-4.6,0.7-9.2,3.5-12.9
		c2.9-3.7,7-6.1,11.7-6.7c4.6-0.6,9.2,0.7,12.9,3.5L65,18c0.4,0.3,3.9,3.7,3.7,3.9c-0.2,0.2-0.4,0.3-0.7,0.1
		c-0.5-0.3-12.3-6.9-23.1,3.9c-6,6-5.4,12.6-3.7,17.1c0.1,0.2,0,0.4-0.2,0.6C41,43.7,40.9,43.7,40.8,43.7z M36.1,1.5
		c-0.7,0-1.4,0-2.1,0.1c-4.4,0.6-8.3,2.8-11,6.3c-2.7,3.5-3.9,7.8-3.3,12.2c0.6,4.4,2.8,8.3,6.3,11l13.9,10.7
		c-1.3-4.7-1.3-10.9,4.5-16.6c8-8,16.5-6.9,21-5.4L46.2,5C43.3,2.7,39.8,1.5,36.1,1.5z"/>
</g>
<g>
	<path class="st3" d="M24.5,14.5l13,10c0,0-2.5,9.5-1.5,14.5l-10-8C26,31,19.5,23.5,24.5,14.5z"/>
	<path class="st1" d="M36.8,40.2l-11.1-8.9c-0.1-0.1-6.7-7.9-1.6-17.1l0.3-0.5l13.7,10.6L38,24.6c0,0.1-2.5,9.4-1.5,14.3L36.8,40.2z
		 M24.7,15.3c-4.3,8.3,1.5,15.1,1.7,15.4l9,7.2c-0.4-4.7,1.2-11.5,1.6-13.1L24.7,15.3z"/>
</g>
</svg>
