<?xml version="1.0" encoding="utf-8"?>
<!-- Generator: Adobe Illustrator 21.1.0, SVG Export Plug-In . SVG Version: 6.00 Build 0)  -->
<svg version="1.1" id="圖層_1" xmlns="http://www.w3.org/2000/svg" xmlns:xlink="http://www.w3.org/1999/xlink" x="0px" y="0px"
	 viewBox="0 0 154 109" style="enable-background:new 0 0 154 109;" xml:space="preserve">
<style type="text/css">
	.st0{fill:#82AFD9;}
	.st1{fill:#212121;}
</style>
<g>
	<g>
		<polygon class="st0" points="65,98 1,60 93,1 153,36 		"/>
		<path class="st1" d="M65,98.5c-0.1,0-0.2,0-0.3-0.1l-64-38c-0.1-0.1-0.2-0.2-0.2-0.4s0.1-0.3,0.2-0.4l92-59c0.2-0.1,0.4-0.1,0.5,0
			l60,35c0.1,0.1,0.2,0.2,0.2,0.4s-0.1,0.3-0.2,0.4l-88,62C65.2,98.5,65.1,98.5,65,98.5z M2,60l63,37.4L152.1,36L93,1.6L2,60z"/>
	</g>
	<g>
		<polygon class="st1" points="62,87 21,62 91.1,16 132,39 		"/>
		<path class="st1" d="M62,87.5c-0.1,0-0.2,0-0.3-0.1l-41-25c-0.1-0.1-0.2-0.2-0.2-0.4s0.1-0.3,0.2-0.4l70.1-46
			c0.2-0.1,0.4-0.1,0.5,0l40.9,23c0.2,0.1,0.2,0.2,0.3,0.4s-0.1,0.3-0.2,0.4l-70,48C62.2,87.5,62.1,87.5,62,87.5z M21.9,62l40,24.4
			L131.1,39l-40-22.5L21.9,62z"/>
	</g>
	<g>
		<path class="st1" d="M62.4,87.3c-0.1,0-0.2,0-0.3-0.1l-45.4-27c-0.1-0.1-0.2-0.2-0.2-0.4s0.1-0.3,0.2-0.4L91,10.6
			c0.2-0.1,0.4-0.1,0.5,0l44.2,25.8c0.1,0.1,0.2,0.2,0.2,0.4s-0.1,0.3-0.2,0.4l-73.1,50C62.6,87.3,62.5,87.3,62.4,87.3z M17.9,59.8
			l44.4,26.4l72.2-49.4L91.3,11.6L17.9,59.8z"/>
	</g>
	<g>
		<polygon class="st0" points="65,98 1,60 1,70 65,109 		"/>
		<path class="st1" d="M65,109.5c-0.1,0-0.2,0-0.3-0.1l-64-39c-0.1-0.1-0.2-0.3-0.2-0.4V60c0-0.2,0.1-0.3,0.3-0.4
			c0.2-0.1,0.3-0.1,0.5,0l64,38c0.2,0.1,0.2,0.3,0.2,0.4v11c0,0.2-0.1,0.3-0.3,0.4C65.2,109.5,65.1,109.5,65,109.5z M1.5,69.7
			l63,38.4v-9.8l-63-37.4V69.7z"/>
	</g>
	<g>
		<polygon class="st0" points="65,109 65,98 153,36 153,49 		"/>
		<path class="st1" d="M65,109.5c-0.1,0-0.2,0-0.2-0.1c-0.2-0.1-0.3-0.3-0.3-0.4V98c0-0.2,0.1-0.3,0.2-0.4l88-62
			c0.2-0.1,0.4-0.1,0.5,0c0.2,0.1,0.3,0.3,0.3,0.4v13c0,0.2-0.1,0.3-0.2,0.4l-88,60C65.2,109.5,65.1,109.5,65,109.5z M65.5,98.3v9.8
			l87-59.3V37L65.5,98.3z"/>
	</g>
	<g>
		<path class="st1" d="M91.5,16.5c-0.3,0-0.5-0.2-0.5-0.5v-4.5c0-0.3,0.2-0.5,0.5-0.5s0.5,0.2,0.5,0.5V16
			C92,16.3,91.8,16.5,91.5,16.5z"/>
	</g>
</g>
</svg>
