<?xml version="1.0" encoding="utf-8"?>
<!-- Generator: Adobe Illustrator 21.1.0, SVG Export Plug-In . SVG Version: 6.00 Build 0)  -->
<svg version="1.1" id="圖層_1" xmlns="http://www.w3.org/2000/svg" xmlns:xlink="http://www.w3.org/1999/xlink" x="0px" y="0px"
	 viewBox="0 0 59 50" style="enable-background:new 0 0 59 50;" xml:space="preserve">
<style type="text/css">
	.st0{fill:#FFFFFF;}
	.st1{fill:#212121;}
</style>
<g>
	<path class="st0" d="M12.6,1.3l43.5,24.9c0,0,5.8,3.5-3.5,10.4l-8.1,12.7L1.6,23.9l3.5-5.8l8.1-9.3L12.6,1.3z"/>
	<path class="st1" d="M44.7,50.2L0.8,24.1l3.8-6.3l8-9.2L12,0.3l44.4,25.5c0.1,0.1,2,1.2,2.1,3.5c0.1,2.4-1.7,5-5.4,7.8L44.7,50.2z
		 M2.4,23.7l41.9,24.9l8-12.4c3.4-2.5,5.1-4.9,5-6.9c-0.1-1.7-1.5-2.5-1.5-2.6L13.3,2.4L13.8,9l-8.3,9.5L2.4,23.7z"/>
</g>
<g>
	<path class="st0" d="M12,0.7c0,0-2.3,2.3-3.5,7S7.4,10,5.1,13.5s0,4.6,0,4.6l40.6,24.3l4.6-7c0,0,0.7-11.1,6.7-8.4L12,0.7z"/>
	<path class="st1" d="M45.8,43.2l-41-24.6c-0.1,0-0.9-0.5-1.2-1.6c-0.3-1.1,0.1-2.4,1-3.8c0.9-1.4,1.5-1.9,2-2.3
		c0.5-0.5,0.8-0.7,1.4-3.3c1.2-4.7,3.5-7.1,3.6-7.2L11.9,0l45.3,26.5l-0.5,1c-1.1-0.5-2-0.5-2.8,0c-2.2,1.4-3,6.2-3.1,7.9l0,0.2
		L45.8,43.2z M12.2,1.5c-0.6,0.8-2.2,2.9-3,6.4c-0.7,2.9-1,3.2-1.8,3.9c-0.4,0.3-0.9,0.8-1.8,2.1c-0.8,1.1-1.1,2.1-0.9,2.9
		c0.2,0.6,0.6,0.9,0.7,0.9l40.1,24.1l4.2-6.4c0.1-1.1,0.7-6.9,3.6-8.7c0.3-0.2,0.7-0.3,1-0.4L12.2,1.5z"/>
</g>
<g>
	<line class="st0" x1="50.3" y1="35.5" x2="52" y2="37.6"/>
	
		<rect x="50.6" y="35.2" transform="matrix(0.7658 -0.6431 0.6431 0.7658 -11.5086 41.4456)" class="st1" width="1.2" height="2.7"/>
</g>
</svg>
