<svg id="圖層_1" data-name="圖層 1" xmlns="http://www.w3.org/2000/svg" viewBox="0 0 210.15 203.52"><defs><style>.cls-1{fill:#7fa8cf;}.cls-1,.cls-2{stroke:#212121;stroke-linecap:round;stroke-linejoin:round;stroke-width:4px;}.cls-2{fill:none;}</style></defs><title>tapeBlue</title><path class="cls-1" d="M746.26,520.52,914,362.91l-.71,15.67,14.45-.89-1.93,14.07,17.27-.5-4.74,13.68,14.07,1.93L790.69,562.43s-3.7-14.84-3.32-17.65-12.41,6.9-14.84,3.7,1.93-14.07,1.93-14.07l-14.07-1.93,1.93-14.07Z" transform="translate(-744.26 -360.91)"/><line class="cls-2" x1="55.78" y1="154.07" x2="73.82" y2="147.94"/><line class="cls-2" x1="39.29" y1="148.95" x2="99.02" y2="131.33"/><line class="cls-2" x1="56.05" y1="131.18" x2="76.9" y2="125.44"/><line class="cls-2" x1="122.06" y1="88.62" x2="142.52" y2="85.69"/><line class="cls-2" x1="109.15" y1="78.26" x2="162.1" y2="68.31"/><line class="cls-2" x1="136.78" y1="64.84" x2="160.44" y2="59.48"/></svg>