<svg id="圖層_1" data-name="圖層 1" xmlns="http://www.w3.org/2000/svg" viewBox="0 0 212.15 205.52"><defs><style>.cls-1{fill:#7fa8cf;}.cls-1,.cls-2{stroke:#464342;stroke-linecap:round;stroke-linejoin:round;stroke-width:6px;}.cls-2{fill:none;}</style></defs><title>tapeBlue</title><path class="cls-1" d="M809.26,603.52,977,445.91l-.71,15.67,14.45-.89-1.93,14.07,17.27-.5-4.74,13.68,14.07,1.93L853.69,645.43s-3.7-14.84-3.32-17.65-12.41,6.9-14.84,3.7,1.93-14.07,1.93-14.07l-14.07-1.93,1.93-14.07Z" transform="translate(-806.26 -442.91)"/><line class="cls-2" x1="56.78" y1="155.07" x2="74.82" y2="148.94"/><line class="cls-2" x1="40.29" y1="149.95" x2="100.02" y2="132.33"/><line class="cls-2" x1="57.05" y1="132.18" x2="77.9" y2="126.44"/><line class="cls-2" x1="123.06" y1="89.62" x2="143.52" y2="86.69"/><line class="cls-2" x1="110.15" y1="79.26" x2="163.1" y2="69.31"/><line class="cls-2" x1="137.78" y1="65.84" x2="161.44" y2="60.48"/></svg>