<svg id="圖層_1" data-name="圖層 1" xmlns="http://www.w3.org/2000/svg" viewBox="0 0 208.78 209"><defs><style>.cls-1{fill:#ead66c;}.cls-1,.cls-2{stroke:#464342;stroke-linecap:round;stroke-linejoin:round;stroke-width:6px;}.cls-2{fill:none;}</style></defs><title>tapeYellow</title><path class="cls-1" d="M999.84,627.74,837.75,464.32l15.68.29-1.28-14.42,14.11,1.54-1-17.25,13.81,4.37,1.54-14.11L1040.53,582.2S1025.8,586.3,1023,586s7.23,12.22,4.1,14.73-14.11-1.54-14.11-1.54l-1.54,14.11-14.11-1.54Z" transform="translate(-834.75 -421.73)"/><line class="cls-2" x1="158.1" y1="152.39" x2="151.48" y2="134.53"/><line class="cls-2" x1="153.43" y1="169.02" x2="134.2" y2="109.78"/><line class="cls-2" x1="135.21" y1="152.74" x2="128.9" y2="132.06"/><line class="cls-2" x1="90.88" y1="87.91" x2="87.4" y2="67.53"/><line class="cls-2" x1="80.87" y1="101.09" x2="69.49" y2="48.43"/><line class="cls-2" x1="66.71" y1="73.84" x2="60.71" y2="50.33"/></svg>