<svg xmlns="http://www.w3.org/2000/svg" viewBox="0 0 50 158"><defs><style>.cls-1,.cls-3{fill:none;}.cls-1,.cls-2,.cls-3{stroke:#212121;stroke-miterlimit:10;}.cls-1{stroke-width:1.5px;}.cls-2{fill:#f08b8c;}.cls-2,.cls-3{stroke-width:1.8px;}</style></defs><title>pinkclip</title><g id="圖層_6" data-name="圖層 6"><path class="cls-1" d="M22,107h0a8,8,0,0,1,8,8v33a0,0,0,0,1,0,0H14a0,0,0,0,1,0,0V115A8,8,0,0,1,22,107Z"/><rect class="cls-2" x="2" y="128" width="46" height="29"/><path class="cls-1" d="M26,107h0a8,8,0,0,1,8,8v33a0,0,0,0,1,0,0H18a0,0,0,0,1,0,0V115A8,8,0,0,1,26,107Z"/><line class="cls-1" x1="2" y1="148" x2="48" y2="148"/><line class="cls-3" x1="24" y1="107" x2="24" y2="5"/></g></svg>