<svg xmlns="http://www.w3.org/2000/svg" viewBox="0 0 96 122"><defs><style>.cls-1{fill:#dc5453;}.cls-2{fill:#f3de6b;}</style></defs><title>postmark1</title><g id="圖層_9" data-name="圖層 9"><path class="cls-1" d="M12.12,72.32l1,4.75a3.46,3.46,0,0,1,1.82.61,25,25,0,0,1,4.66,1.4c.39.16.79.3,1.19.44l-1.62-7.35a24.89,24.89,0,0,1-2.7-.92,22.57,22.57,0,0,0-2.69-.9A3.46,3.46,0,0,1,12.12,72.32Z"/><path class="cls-1" d="M14.6,83.56l.86,3.89a25,25,0,0,1,6.4,1.68c.39.16.79.3,1.19.44l-1.62-7.35a25,25,0,0,1-2.7-.92,22.53,22.53,0,0,0-2.26-.78A3.44,3.44,0,0,1,14.6,83.56Z"/><path class="cls-1" d="M13.67,67.81A25,25,0,0,1,17.43,69c.39.16.79.3,1.19.44L8.21,22.3l59.12-13L87.14,99.12,28,112.15l-2.17-9.83a24.88,24.88,0,0,1-2.7-.92,22.58,22.58,0,0,0-2.85-.95,3.39,3.39,0,0,1,1,1.78,3.44,3.44,0,0,1-1.8,3.8l1,4.75A3.43,3.43,0,0,1,22,117.27l.93,4.22,4.84-1.07a3.45,3.45,0,0,1,6.73-1.48l4.5-1a3.45,3.45,0,0,1,6.73-1.48l4.5-1A3.45,3.45,0,1,1,57,114l4.5-1a3.45,3.45,0,0,1,6.73-1.48l4.5-1A3.45,3.45,0,0,1,79.47,109l4.5-1a3.45,3.45,0,0,1,6.73-1.48l4.84-1.07-.92-4.16a3.44,3.44,0,0,1-1.46-6.6l-1-4.64a3.44,3.44,0,0,1-1.46-6.6l-1-4.64a3.44,3.44,0,0,1-1.46-6.6l-1-4.63A3.44,3.44,0,0,1,85.75,61l-1-4.63a3.44,3.44,0,0,1-1.46-6.6l-1-4.64a3.44,3.44,0,0,1-1.46-6.6l-1-4.64a3.44,3.44,0,0,1-1.46-6.6l-1-4.64a3.44,3.44,0,0,1-1.46-6.6l-1-4.64a3.44,3.44,0,0,1-1.46-6.6L72.44.67,67.57,1.75A3.43,3.43,0,0,1,60.9,3.21l-4.57,1a3.43,3.43,0,0,1-6.66,1.47l-4.57,1a3.43,3.43,0,0,1-6.66,1.47l-4.57,1a3.43,3.43,0,0,1-6.66,1.47l-4.57,1A3.43,3.43,0,0,1,16,13.12l-4.57,1A3.43,3.43,0,0,1,4.73,15.6L-.15,16.68l.93,4.22a3.43,3.43,0,0,1,1.43,6.49l1,4.75a3.43,3.43,0,0,1,1.43,6.49l1,4.75a3.43,3.43,0,0,1,1.43,6.49l1,4.75a3.43,3.43,0,0,1,1.43,6.49l1,4.75A3.44,3.44,0,0,1,13.67,67.81Z"/><path class="cls-1" d="M25.26,99.62l-1.62-7.35a24.93,24.93,0,0,1-2.7-.92,22.55,22.55,0,0,0-2.2-.76,3.4,3.4,0,0,1,.13.41,3.44,3.44,0,0,1-1.8,3.8l.6,2.71a25,25,0,0,1,6.4,1.68C24.47,99.34,24.86,99.48,25.26,99.62Z"/><path class="cls-2" d="M13.26,82.79a15.33,15.33,0,0,0,8-4.58,13.94,13.94,0,0,1,15.53-3.42A15.41,15.41,0,0,0,53.93,71l-1.07-1a13.94,13.94,0,0,1-15.53,3.42,15.41,15.41,0,0,0-17.16,3.78A13.94,13.94,0,0,1,4.65,80.65c-5.93-2.45-5.93-.87-.57,1.34A15.37,15.37,0,0,0,13.26,82.79Z"/><path class="cls-2" d="M14.61,88.91a15.33,15.33,0,0,0,8-4.58,13.94,13.94,0,0,1,15.53-3.42,15.41,15.41,0,0,0,17.16-3.78l-1.07-1a13.94,13.94,0,0,1-15.53,3.42,15.41,15.41,0,0,0-17.16,3.78A13.94,13.94,0,0,1,6,86.77c-5.93-2.45-5.93-.87-.57,1.34A15.37,15.37,0,0,0,14.61,88.91Z"/><path class="cls-2" d="M16,95a15.33,15.33,0,0,0,8-4.58A13.94,13.94,0,0,1,39.47,87a15.41,15.41,0,0,0,17.16-3.78l-1.07-1A13.94,13.94,0,0,1,40,85.68a15.41,15.41,0,0,0-17.16,3.78A13.94,13.94,0,0,1,7.35,92.88c-5.93-2.45-5.93-.87-.57,1.34A15.37,15.37,0,0,0,16,95Z"/><path class="cls-2" d="M17.31,101.14a15.33,15.33,0,0,0,8-4.58,13.94,13.94,0,0,1,15.53-3.42A15.41,15.41,0,0,0,58,89.36l-1.07-1A13.94,13.94,0,0,1,41.38,91.8a15.41,15.41,0,0,0-17.16,3.78A13.94,13.94,0,0,1,8.7,99c-5.93-2.45-5.93-.87-.57,1.34A15.37,15.37,0,0,0,17.31,101.14Z"/></g></svg>