<svg xmlns="http://www.w3.org/2000/svg" viewBox="0 0 200 200"><defs><style>.cls-1{fill:#540368;stroke:#000;stroke-miterlimit:10;stroke-width:5px;}</style></defs><title>purpleWheel</title><g id="圖層_6" data-name="圖層 6"><path class="cls-1" d="M99.44,6.88A94.56,94.56,0,1,0,194,101.44,94.67,94.67,0,0,0,99.44,6.88Zm8.16,17.6a77.53,77.53,0,0,1,68.8,68.8H119.3a21.53,21.53,0,0,0-11.7-11.7Zm-16.31,0v57.1a21.53,21.53,0,0,0-11.7,11.7H22.48A77.53,77.53,0,0,1,91.28,24.48Zm0,153.92a77.53,77.53,0,0,1-68.8-68.8h57.1a21.53,21.53,0,0,0,11.7,11.7Zm7.67-65.05a12.46,12.46,0,1,1,12.46-12.46A12.46,12.46,0,0,1,98.95,113.34Zm8.65,65.05V121.3a21.53,21.53,0,0,0,11.7-11.7h57.1A77.53,77.53,0,0,1,107.59,178.4Z"/></g></svg>