<svg xmlns="http://www.w3.org/2000/svg" viewBox="0 0 200 200"><defs><style>.cls-1{fill:none;stroke:#000;}.cls-1,.cls-2{stroke-miterlimit:10;stroke-width:5px;}.cls-2{fill:#ba1a48;stroke:#232323;}.cls-3{fill:#61647d;}</style></defs><title>redWheel</title><g id="圖層_6" data-name="圖層 6"><path class="cls-1" d="M98.58,175.91h0Z"/><path class="cls-2" d="M99.44,5.88A94.56,94.56,0,1,0,194,100.44,94.67,94.67,0,0,0,99.44,5.88Zm77,86.41H119.3a21.53,21.53,0,0,0-11.7-11.7V23.48A77.53,77.53,0,0,1,176.4,92.28ZM91.28,23.48v57.1a21.53,21.53,0,0,0-11.7,11.7H22.48A77.53,77.53,0,0,1,91.28,23.48ZM22.48,108.6h57.1a21.53,21.53,0,0,0,11.7,11.7v57.1A77.53,77.53,0,0,1,22.48,108.6Zm85.12,68.8V120.3a21.53,21.53,0,0,0,11.7-11.7h57.1A77.53,77.53,0,0,1,107.59,177.4Z"/><circle class="cls-3" cx="99.95" cy="99.89" r="12.46"/></g></svg>