<svg xmlns="http://www.w3.org/2000/svg" viewBox="0 0 200 200"><defs><style>.cls-1{fill:#ba1a48;}.cls-2{fill:#232323;}</style></defs><title>redwheel</title><g id="圖層_6" data-name="圖層 6"><path class="cls-1" d="M100.4,6.9A94.6,94.6,0,1,0,195,101.4,94.7,94.7,0,0,0,100.4,6.9Zm77,86.4H120.3a21.5,21.5,0,0,0-11.7-11.7V24.5A77.5,77.5,0,0,1,177.4,93.3ZM92.3,24.5V81.6A21.5,21.5,0,0,0,80.6,93.3H23.5A77.5,77.5,0,0,1,92.3,24.5ZM23.5,109.6H80.6a21.5,21.5,0,0,0,11.7,11.7v57.1A77.5,77.5,0,0,1,23.5,109.6Zm85.1,68.8V121.3a21.5,21.5,0,0,0,11.7-11.7h57.1A77.5,77.5,0,0,1,108.6,178.4Z"/><path class="cls-2" d="M100.4,198.5a97.1,97.1,0,1,1,97.1-97.1A97.2,97.2,0,0,1,100.4,198.5Zm0-189.1a92.1,92.1,0,1,0,92.1,92.1A92.2,92.2,0,0,0,100.4,9.4Zm5.7,171.8V119.6l1.5-.6A19.1,19.1,0,0,0,118,108.6l.6-1.5h61.6l-.3,2.8a80.2,80.2,0,0,1-71,71Zm5-58.3v52.7a75.2,75.2,0,0,0,63.5-63.5H121.9A24.2,24.2,0,0,1,111.1,122.9ZM94.8,181.2l-2.8-.3a80.2,80.2,0,0,1-71-71l-.3-2.8H82.3l.6,1.5A19.1,19.1,0,0,0,93.2,119l1.5.6ZM26.3,112.1a75.2,75.2,0,0,0,63.5,63.5V122.9A24.2,24.2,0,0,1,79,112.1ZM180.2,95.8H118.6l-.6-1.5a19.1,19.1,0,0,0-10.3-10.3l-1.5-.6V21.7l2.8.3a80.2,80.2,0,0,1,71,71Zm-58.3-5h52.7a75.2,75.2,0,0,0-63.5-63.5V80A24.2,24.2,0,0,1,121.9,90.8Zm-39.6,5H20.7L21,93A80.2,80.2,0,0,1,92,22l2.8-.3V83.3l-1.5.6A19.1,19.1,0,0,0,82.9,94.2Zm-55.9-5H79A24.2,24.2,0,0,1,89.8,80V27.3A75.2,75.2,0,0,0,26.3,90.8Z"/></g></svg>