<?xml version="1.0" encoding="utf-8"?>
<!-- Generator: Adobe Illustrator 21.1.0, SVG Export Plug-In . SVG Version: 6.00 Build 0)  -->
<svg version="1.1" id="圖層_1" xmlns="http://www.w3.org/2000/svg" xmlns:xlink="http://www.w3.org/1999/xlink" x="0px" y="0px"
	 viewBox="0 0 155 266" style="enable-background:new 0 0 155 266;" xml:space="preserve">
<style type="text/css">
	.st0{fill:#EBD76C;stroke:#000000;stroke-width:5;stroke-miterlimit:10;}
</style>
<g>
	<path class="st0" d="M63.1,3.1h25.7c1.5,0,2.7,1.2,2.7,2.7v254.4c0,1.5-1.2,2.7-2.7,2.7H63.1c-1.5,0-2.7-1.2-2.7-2.7V5.8
		C60.4,4.3,61.6,3.1,63.1,3.1z"/>
	<path class="st0" d="M5.6,11.5h143.8c1.2,0,2.2,1,2.2,2.2v67c0,1.2-1,2.2-2.2,2.2H5.6c-1.2,0-2.2-1-2.2-2.2v-67
		C3.4,12.5,4.4,11.5,5.6,11.5z"/>
</g>
</svg>
