<?xml version="1.0" encoding="utf-8"?>
<!-- Generator: Adobe Illustrator 16.0.0, SVG Export Plug-In . SVG Version: 6.00 Build 0)  -->
<!DOCTYPE svg PUBLIC "-//W3C//DTD SVG 1.1//EN" "http://www.w3.org/Graphics/SVG/1.1/DTD/svg11.dtd">
<svg version="1.1" id="圖層_1" xmlns="http://www.w3.org/2000/svg" xmlns:xlink="http://www.w3.org/1999/xlink" x="0px" y="0px"
	 width="1146px" height="712px" viewBox="0 0 1146 712" enable-background="new 0 0 1146 712" xml:space="preserve">
<path fill="#8BB9B9" stroke="#040000" stroke-width="5" stroke-miterlimit="10" d="M1140.857,695.238c0,6.628-5.371,12-12,12H17
	c-6.627,0-12-5.372-12-12V17.326c0-6.628,5.373-12,12-12h1111.857c6.629,0,12,5.372,12,12V695.238z"/>
<path fill="#FFFFFF" stroke="#040000" stroke-width="5" stroke-miterlimit="10" d="M1083.435,639.139
	c0,5.533-4.856,10.016-10.851,10.016H67.273c-5.992,0-10.85-4.482-10.85-10.016V73.424c0-5.53,4.857-10.014,10.85-10.014h1005.311
	c5.994,0,10.851,4.483,10.851,10.014V639.139z"/>
</svg>
