<?xml version="1.0" encoding="utf-8"?>
<!-- Generator: Adobe Illustrator 16.0.0, SVG Export Plug-In . SVG Version: 6.00 Build 0)  -->
<!DOCTYPE svg PUBLIC "-//W3C//DTD SVG 1.1//EN" "http://www.w3.org/Graphics/SVG/1.1/DTD/svg11.dtd">
<svg version="1.1" id="圖層_1" xmlns="http://www.w3.org/2000/svg" xmlns:xlink="http://www.w3.org/1999/xlink" x="0px" y="0px"
	 width="675px" height="655px" viewBox="0 0 675 655" enable-background="new 0 0 675 655" xml:space="preserve">
<g>
	
		<rect x="215.11" y="322.732" fill="#EBD76C" stroke="#000000" stroke-width="5" stroke-miterlimit="10" width="26.213" height="19.559"/>
	
		<rect x="254.632" y="322.732" fill="#EBD76C" stroke="#000000" stroke-width="5" stroke-miterlimit="10" width="26.212" height="19.559"/>
	
		<rect x="294.154" y="322.732" fill="#EBD76C" stroke="#000000" stroke-width="5" stroke-miterlimit="10" width="26.213" height="19.559"/>
	
		<rect x="333.673" y="322.732" fill="#EBD76C" stroke="#000000" stroke-width="5" stroke-miterlimit="10" width="26.213" height="19.559"/>
	
		<rect x="54.201" y="294.57" fill="#3D989B" stroke="#000000" stroke-width="5" stroke-miterlimit="10" width="98.939" height="210.781"/>
	
		<rect x="21.938" y="500.525" fill="#41A6A9" stroke="#000000" stroke-width="5" stroke-miterlimit="10" width="438.771" height="149.129"/>
	
		<rect x="153.14" y="340.274" fill="#41A6A9" stroke="#000000" stroke-width="5" stroke-miterlimit="10" width="238.141" height="122.599"/>
	
		<rect x="153.14" y="462.873" fill="#6D6E71" stroke="#000000" stroke-width="5" stroke-miterlimit="10" width="38.983" height="36.025"/>
	
		<rect x="297.919" y="462.873" fill="#6D6E71" stroke="#000000" stroke-width="5" stroke-miterlimit="10" width="38.979" height="36.025"/>
	
		<rect x="383.619" y="361.447" fill="#41A6A9" stroke="#000000" stroke-width="5" stroke-miterlimit="10" width="32.036" height="77.025"/>
	<polygon fill="#6D6E71" stroke="#000000" stroke-width="5" stroke-miterlimit="10" points="500.134,58.238 487.371,21.166 
		350.744,68.207 350.722,68.139 145.78,138.702 158.543,175.774 295.168,128.733 295.192,128.801 	"/>
	<polygon fill="#6D6E71" stroke="#000000" stroke-width="5" stroke-miterlimit="10" points="519.281,119.296 506.519,82.224 
		390.114,122.302 389.992,121.957 347.129,137.102 301.575,152.787 301.702,153.154 181.081,195.776 194.142,232.745 
		360.078,174.11 	"/>
	
		<rect x="467.044" y="170.731" transform="matrix(0.2434 0.9699 -0.9699 0.2434 622.2012 -423.5137)" fill="#6D6E71" stroke="#000000" stroke-width="5" stroke-miterlimit="10" width="231.05" height="32.675"/>
	
		<rect x="418.476" y="185.807" transform="matrix(0.2434 0.9699 -0.9699 0.2434 600.0833 -364.999)" fill="#6D6E71" stroke="#000000" stroke-width="5" stroke-miterlimit="10" width="231.047" height="32.675"/>
	<g>
		<polygon fill="#58595B" stroke="#000000" stroke-width="5" stroke-miterlimit="10" points="536.02,311.349 512.895,388.669 
			523.076,396.474 561.704,331.049 		"/>
		<polygon fill="#58595B" stroke="#000000" stroke-width="5" stroke-miterlimit="10" points="512.893,387.771 521.821,493.693 
			534.633,494.352 532.341,374.934 		"/>
		<polygon fill="#58595B" stroke="#000000" stroke-width="5" stroke-miterlimit="10" points="627.423,303.581 668.772,373.594 
			661.367,381.95 608.734,324.681 		"/>
		<polygon fill="#58595B" stroke="#000000" stroke-width="5" stroke-miterlimit="10" points="668.768,372.395 666.515,489.324 
			653.722,490.271 650.504,368.797 		"/>
		<path fill="#41A6A9" stroke="#000000" stroke-width="5" stroke-miterlimit="10" d="M655.267,312.244
			c-64.396,7.238-87.65,9.854-137.734,15.484c-4.274-38.033,23.089-72.337,61.121-76.61
			C616.69,246.841,650.988,274.204,655.267,312.244"/>
		<polygon fill="#3D989B" stroke="#000000" stroke-width="5" stroke-miterlimit="10" points="643.923,313.518 640.067,321.262 
			529.163,332.366 523.803,327.021 		"/>
	</g>
	<path fill="#41A6A9" stroke="#000000" stroke-width="5" stroke-miterlimit="10" d="M585.079,70.042c0,35.899-29.101,65-64.998,65
		c-35.899,0-65.001-29.101-65.001-65s29.102-65,65.001-65C555.979,5.042,585.079,34.143,585.079,70.042"/>
	<path fill="#6D6E71" stroke="#000000" stroke-width="5" stroke-miterlimit="10" d="M553.285,70.042
		c0,18.338-14.869,33.206-33.204,33.206c-18.341,0-33.208-14.868-33.208-33.206c0-18.338,14.867-33.206,33.208-33.206
		C538.416,36.836,553.285,51.704,553.285,70.042"/>
	<path fill="#EEEFEF" stroke="#000000" stroke-width="5" stroke-miterlimit="10" d="M536.329,70.042
		c0,8.975-7.274,16.25-16.248,16.25c-8.976,0-16.251-7.275-16.251-16.25c0-8.975,7.275-16.25,16.251-16.25
		C529.055,53.792,536.329,61.067,536.329,70.042"/>
	<path fill="#41A6A9" stroke="#000000" stroke-width="5" stroke-miterlimit="10" d="M202.611,227.894
		c0,54.644-44.299,98.939-98.942,98.939c-54.641,0-98.936-44.295-98.936-98.939c0-54.644,44.295-98.939,98.936-98.939
		C158.313,128.955,202.611,173.25,202.611,227.894"/>
	<path fill="#6D6E71" stroke="#000000" stroke-width="5" stroke-miterlimit="10" d="M154.216,227.894
		c0,27.915-22.633,50.543-50.547,50.543c-27.913,0-50.543-22.628-50.543-50.543c0-27.914,22.63-50.543,50.543-50.543
		C131.583,177.351,154.216,199.98,154.216,227.894"/>
	<path fill="#EEEFEF" stroke="#000000" stroke-width="5" stroke-miterlimit="10" d="M128.404,227.894
		c0,13.66-11.075,24.734-24.735,24.734c-13.658,0-24.733-11.074-24.733-24.734s11.075-24.734,24.733-24.734
		C117.329,203.16,128.404,214.234,128.404,227.894"/>
</g>
</svg>
