<?xml version="1.0" encoding="utf-8"?>
<!-- Generator: Adobe Illustrator 16.0.0, SVG Export Plug-In . SVG Version: 6.00 Build 0)  -->
<!DOCTYPE svg PUBLIC "-//W3C//DTD SVG 1.1//EN" "http://www.w3.org/Graphics/SVG/1.1/DTD/svg11.dtd">
<svg version="1.1" id="圖層_1" xmlns="http://www.w3.org/2000/svg" xmlns:xlink="http://www.w3.org/1999/xlink" x="0px" y="0px"
	 width="1258px" height="607px" viewBox="0 0 1258 607" enable-background="new 0 0 1258 607" xml:space="preserve">
<g>
	<path fill="#419EA2" stroke="#000000" stroke-width="5" stroke-miterlimit="10" d="M858.6,478.467
		c-3.545-0.648-7.621-0.988-12.309-0.988H67.293v0.066c-1.091-0.037-2.185-0.066-3.287-0.066c-2.53,0-4.837,0.102-6.951,0.291
		c-1.489-0.188-2.996-0.291-4.521-0.291c-25.958,0-47,27.688-47,61.84c0,34.154,21.042,61.842,47,61.842
		c1.525,0,3.032-0.104,4.521-0.291c2.114,0.189,4.421,0.291,6.951,0.291c1.102,0,2.196-0.031,3.287-0.066v0.066h778.998
		c1.877,0,3.65-0.057,5.336-0.16c1.059,0.094,2.123,0.16,3.199,0.16c25.795,0,46.707-27.516,46.707-61.455
		C901.533,507.438,882.629,480.996,858.6,478.467"/>
	<path fill="#88B4B4" stroke="#000000" stroke-width="5" stroke-miterlimit="10" d="M841.797,494.553
		c-3.408-0.477-7.328-0.727-11.834-0.727H80.94v0.049c-1.05-0.025-2.101-0.049-3.161-0.049c-2.432,0-4.65,0.074-6.684,0.215
		c-1.431-0.137-2.88-0.215-4.347-0.215c-24.958,0-45.191,20.369-45.191,45.492c0,25.125,20.233,45.494,45.191,45.494
		c1.467,0,2.916-0.078,4.347-0.215c2.034,0.141,4.252,0.215,6.684,0.215c1.06,0,2.111-0.023,3.161-0.051v0.051h749.022
		c1.805,0,3.508-0.041,5.129-0.119c1.02,0.07,2.041,0.119,3.076,0.119c24.803,0,44.91-20.242,44.91-45.209
		C883.078,515.865,864.9,496.414,841.797,494.553"/>
	<path fill="#41A6A9" stroke="#000000" stroke-width="5" stroke-miterlimit="10" d="M133.585,539.537
		c0,24.164-19.587,43.75-43.75,43.75s-43.75-19.586-43.75-43.75c0-24.162,19.587-43.75,43.75-43.75S133.585,515.375,133.585,539.537
		"/>
	<path fill="#37504D" stroke="#000000" stroke-width="5" stroke-miterlimit="10" d="M97.085,539.537c0,4.004-3.246,7.25-7.25,7.25
		s-7.25-3.246-7.25-7.25s3.246-7.25,7.25-7.25S97.085,535.533,97.085,539.537"/>
	<path fill="#41A6A9" stroke="#000000" stroke-width="5" stroke-miterlimit="10" d="M312.085,539.162
		c0,24.164-19.587,43.75-43.75,43.75s-43.75-19.586-43.75-43.75c0-24.162,19.587-43.75,43.75-43.75S312.085,515,312.085,539.162"/>
	<path fill="#37504D" stroke="#000000" stroke-width="5" stroke-miterlimit="10" d="M275.585,539.162c0,4.004-3.246,7.25-7.25,7.25
		s-7.25-3.246-7.25-7.25s3.246-7.25,7.25-7.25S275.585,535.158,275.585,539.162"/>
	<path fill="#41A6A9" stroke="#000000" stroke-width="5" stroke-miterlimit="10" d="M494.752,539.162
		c0,24.164-19.588,43.75-43.75,43.75s-43.75-19.586-43.75-43.75c0-24.162,19.588-43.75,43.75-43.75S494.752,515,494.752,539.162"/>
	<path fill="#37504D" stroke="#000000" stroke-width="5" stroke-miterlimit="10" d="M456.295,539.537c0,4.004-3.246,7.25-7.25,7.25
		c-4.006,0-7.25-3.246-7.25-7.25s3.244-7.25,7.25-7.25C453.049,532.287,456.295,535.533,456.295,539.537"/>
	<path fill="#41A6A9" stroke="#000000" stroke-width="5" stroke-miterlimit="10" d="M678.086,539.162
		c0,24.164-19.588,43.75-43.75,43.75c-24.164,0-43.75-19.586-43.75-43.75c0-24.162,19.586-43.75,43.75-43.75
		C658.498,495.412,678.086,515,678.086,539.162"/>
	<path fill="#37504D" stroke="#000000" stroke-width="5" stroke-miterlimit="10" d="M641.586,539.162c0,4.004-3.246,7.25-7.25,7.25
		c-4.006,0-7.25-3.246-7.25-7.25s3.244-7.25,7.25-7.25C638.34,531.912,641.586,535.158,641.586,539.162"/>
	<path fill="#41A6A9" stroke="#000000" stroke-width="5" stroke-miterlimit="10" d="M858.418,539.318
		c0,24.164-19.588,43.75-43.75,43.75s-43.75-19.586-43.75-43.75c0-24.162,19.588-43.75,43.75-43.75S858.418,515.156,858.418,539.318
		"/>
	<path fill="#37504D" stroke="#000000" stroke-width="5" stroke-miterlimit="10" d="M821.918,539.537c0,4.004-3.246,7.25-7.25,7.25
		s-7.25-3.246-7.25-7.25s3.246-7.25,7.25-7.25S821.918,535.533,821.918,539.537"/>
	<path fill="#3D989B" stroke="#000000" stroke-width="5" stroke-miterlimit="10" d="M1001.398,211.834
		c0-37.453,16.398-71.063,42.377-94.102h166.719c25.98,23.039,42.379,56.648,42.379,94.102c0,37.572-16.504,71.275-42.633,94.316
		h-166.211C1017.9,283.109,1001.398,249.406,1001.398,211.834"/>
	
		<rect x="846.65" y="338.477" fill="#41A6A9" stroke="#000000" stroke-width="5" stroke-miterlimit="10" width="391.182" height="263.68"/>
	
		<rect x="866.711" y="354.34" fill="#F0F2ED" stroke="#000000" stroke-width="5" stroke-miterlimit="10" width="148.066" height="60.18"/>
	
		<rect x="1083.799" y="355.055" fill="#EBD76C" stroke="#000000" stroke-width="5" stroke-miterlimit="10" width="22.924" height="22.926"/>
	
		<rect x="1045.109" y="355.055" fill="#EBD76C" stroke="#000000" stroke-width="5" stroke-miterlimit="10" width="22.926" height="22.926"/>
	
		<rect x="1083.799" y="392.313" fill="#EBD76C" stroke="#000000" stroke-width="5" stroke-miterlimit="10" width="22.924" height="22.922"/>
	
		<rect x="1045.109" y="392.313" fill="#EBD76C" stroke="#000000" stroke-width="5" stroke-miterlimit="10" width="22.926" height="22.922"/>
	
		<rect x="1197.715" y="354.338" fill="#F0F2ED" stroke="#000000" stroke-width="5" stroke-miterlimit="10" width="21.49" height="60.896"/>
	
		<rect x="1160.814" y="354.338" fill="#F0F2ED" stroke="#000000" stroke-width="5" stroke-miterlimit="10" width="21.492" height="60.896"/>
	
		<rect x="1123.918" y="354.338" fill="#F0F2ED" stroke="#000000" stroke-width="5" stroke-miterlimit="10" width="21.494" height="60.896"/>
	
		<rect x="1036.51" y="316.279" fill="#58595B" stroke="#000000" stroke-width="5" stroke-miterlimit="10" width="182.695" height="21.342"/>
	<polygon fill="#41A6A9" stroke="#000000" stroke-width="5" stroke-miterlimit="10" points="1158.795,292.564 1206.693,243.559 
		1097.32,131.316 1047.578,178.814 	"/>
	<path fill="#41A6A9" stroke="#000000" stroke-width="5" stroke-miterlimit="10" d="M1038.174,155.068
		c0,18.93,15.344,34.277,34.277,34.277c18.924,0,34.271-15.348,34.271-34.277c0-18.932-15.348-34.279-34.271-34.279
		C1053.518,120.789,1038.174,136.137,1038.174,155.068"/>
	<path fill="#6D6E71" stroke="#000000" stroke-width="5" stroke-miterlimit="10" d="M1054.938,155.068
		c0,9.672,7.842,17.506,17.514,17.506c9.666,0,17.51-7.834,17.51-17.506c0-9.674-7.844-17.51-17.51-17.51
		C1062.779,137.559,1054.938,145.395,1054.938,155.068"/>
	<path fill="#EEEFEF" stroke="#000000" stroke-width="5" stroke-miterlimit="10" d="M1063.879,155.068
		c0,4.732,3.836,8.568,8.572,8.568c4.73,0,8.564-3.836,8.564-8.568s-3.834-8.568-8.564-8.568
		C1067.715,146.5,1063.879,150.336,1063.879,155.068"/>
	<path fill="#41A6A9" stroke="#000000" stroke-width="5" stroke-miterlimit="10" d="M1148.031,267.637
		c0,18.93,15.348,34.273,34.275,34.273c18.934,0,34.277-15.344,34.277-34.273c0-18.936-15.344-34.275-34.277-34.275
		C1163.379,233.361,1148.031,248.701,1148.031,267.637"/>
	<path fill="#6D6E71" stroke="#000000" stroke-width="5" stroke-miterlimit="10" d="M1164.797,267.637
		c0,9.668,7.84,17.506,17.51,17.506c9.674,0,17.51-7.838,17.51-17.506c0-9.676-7.836-17.512-17.51-17.512
		C1172.637,250.125,1164.797,257.961,1164.797,267.637"/>
	<path fill="#EEEFEF" stroke="#000000" stroke-width="5" stroke-miterlimit="10" d="M1173.74,267.637
		c0,4.732,3.836,8.564,8.566,8.564c4.736,0,8.572-3.832,8.572-8.564c0-4.736-3.836-8.57-8.572-8.57
		C1177.576,259.066,1173.74,262.9,1173.74,267.637"/>
	
		<rect x="1045.109" y="304.189" fill="#41A6A9" stroke="#000000" stroke-width="5" stroke-miterlimit="10" width="163.35" height="12.09"/>
	
		<rect x="1043.775" y="44.355" fill="#6D6E71" stroke="#000000" stroke-width="5" stroke-miterlimit="10" width="164.684" height="73.377"/>
	
		<rect x="1034.361" y="55.34" fill="#58595B" stroke="#000000" stroke-width="5" stroke-miterlimit="10" width="183.889" height="10.504"/>
	
		<rect x="1034.174" y="73.404" fill="#58595B" stroke="#000000" stroke-width="5" stroke-miterlimit="10" width="183.891" height="10.506"/>
	
		<rect x="1033.984" y="91.471" fill="#58595B" stroke="#000000" stroke-width="5" stroke-miterlimit="10" width="183.889" height="10.504"/>
	
		<rect x="1028.15" y="5.664" fill="#3D989B" stroke="#000000" stroke-width="5" stroke-miterlimit="10" width="195.83" height="38.691"/>
	
		<rect x="835.773" y="333.477" fill="#41A6A9" stroke="#000000" stroke-width="5" stroke-miterlimit="10" width="21.754" height="164.486"/>
</g>
</svg>
