<?xml version="1.0" encoding="utf-8"?>
<!-- Generator: Adobe Illustrator 16.0.0, SVG Export Plug-In . SVG Version: 6.00 Build 0)  -->
<!DOCTYPE svg PUBLIC "-//W3C//DTD SVG 1.1//EN" "http://www.w3.org/Graphics/SVG/1.1/DTD/svg11.dtd">
<svg version="1.1" id="圖層_1" xmlns="http://www.w3.org/2000/svg" xmlns:xlink="http://www.w3.org/1999/xlink" x="0px" y="0px"
	 width="797px" height="655px" viewBox="0 0 797 655" enable-background="new 0 0 797 655" xml:space="preserve">
<g>
	
		<rect x="216.11" y="322.732" fill="#EBD76C" stroke="#000000" stroke-width="5" stroke-miterlimit="10" width="26.213" height="19.559"/>
	
		<rect x="255.632" y="322.732" fill="#EBD76C" stroke="#000000" stroke-width="5" stroke-miterlimit="10" width="26.212" height="19.559"/>
	
		<rect x="295.154" y="322.732" fill="#EBD76C" stroke="#000000" stroke-width="5" stroke-miterlimit="10" width="26.213" height="19.559"/>
	
		<rect x="334.673" y="322.732" fill="#EBD76C" stroke="#000000" stroke-width="5" stroke-miterlimit="10" width="26.213" height="19.559"/>
	
		<rect x="55.201" y="294.57" fill="#3D989B" stroke="#000000" stroke-width="5" stroke-miterlimit="10" width="98.939" height="210.781"/>
	
		<rect x="22.938" y="500.525" fill="#41A6A9" stroke="#000000" stroke-width="5" stroke-miterlimit="10" width="438.771" height="149.129"/>
	
		<rect x="154.14" y="340.274" fill="#41A6A9" stroke="#000000" stroke-width="5" stroke-miterlimit="10" width="238.141" height="122.599"/>
	
		<rect x="154.14" y="462.873" fill="#6D6E71" stroke="#000000" stroke-width="5" stroke-miterlimit="10" width="38.983" height="36.025"/>
	
		<rect x="298.919" y="462.873" fill="#6D6E71" stroke="#000000" stroke-width="5" stroke-miterlimit="10" width="38.979" height="36.025"/>
	
		<rect x="384.619" y="361.447" fill="#41A6A9" stroke="#000000" stroke-width="5" stroke-miterlimit="10" width="32.036" height="77.025"/>
	<polygon fill="#6D6E71" stroke="#000000" stroke-width="5" stroke-miterlimit="10" points="501.134,58.238 488.371,21.166 
		351.745,68.207 351.722,68.139 146.78,138.702 159.543,175.774 296.168,128.733 296.192,128.801 	"/>
	<polygon fill="#6D6E71" stroke="#000000" stroke-width="5" stroke-miterlimit="10" points="520.281,119.296 507.519,82.224 
		391.114,122.302 390.992,121.957 348.129,137.102 302.575,152.787 302.702,153.154 182.081,195.776 195.142,232.745 
		361.078,174.11 	"/>
	
		<rect x="531.915" y="144.518" transform="matrix(0.69 0.7238 -0.7238 0.69 317.1097 -418.743)" fill="#6D6E71" stroke="#000000" stroke-width="5" stroke-miterlimit="10" width="231.05" height="32.675"/>
	
		<rect x="497.095" y="181.583" transform="matrix(0.69 0.7238 -0.7238 0.69 333.1487 -382.0544)" fill="#6D6E71" stroke="#000000" stroke-width="5" stroke-miterlimit="10" width="231.048" height="32.676"/>
	<polygon fill="#58595B" stroke="#000000" stroke-width="5" stroke-miterlimit="10" points="659.691,274.573 636.25,351.796 
		646.396,359.643 685.295,294.378 	"/>
	<polygon fill="#58595B" stroke="#000000" stroke-width="5" stroke-miterlimit="10" points="636.25,350.898 644.744,456.856 
		657.551,457.566 655.752,338.139 	"/>
	<polygon fill="#58595B" stroke="#000000" stroke-width="5" stroke-miterlimit="10" points="751.125,267.181 792.188,337.361 
		784.747,345.689 732.352,288.2 	"/>
	<polygon fill="#58595B" stroke="#000000" stroke-width="5" stroke-miterlimit="10" points="792.188,336.162 789.453,453.084 
		776.656,453.977 773.939,332.49 	"/>
	<path fill="#41A6A9" stroke="#000000" stroke-width="5" stroke-miterlimit="10" d="M778.935,275.955
		c-64.426,6.975-87.69,9.493-137.797,14.919c-4.119-38.049,23.385-72.24,61.435-76.358
		C740.627,210.396,774.812,237.9,778.935,275.955"/>
	<polygon fill="#3D989B" stroke="#000000" stroke-width="5" stroke-miterlimit="10" points="767.586,277.183 763.697,284.911 
		652.749,295.558 647.41,290.193 	"/>
	<path fill="#41A6A9" stroke="#000000" stroke-width="5" stroke-miterlimit="10" d="M586.079,70.042c0,35.899-29.101,65-64.998,65
		c-35.899,0-65.001-29.101-65.001-65s29.102-65,65.001-65C556.979,5.042,586.079,34.143,586.079,70.042"/>
	<path fill="#6D6E71" stroke="#000000" stroke-width="5" stroke-miterlimit="10" d="M554.285,70.042
		c0,18.338-14.869,33.206-33.204,33.206c-18.341,0-33.208-14.868-33.208-33.206c0-18.338,14.867-33.206,33.208-33.206
		C539.416,36.836,554.285,51.704,554.285,70.042"/>
	<path fill="#EEEFEF" stroke="#000000" stroke-width="5" stroke-miterlimit="10" d="M537.329,70.042
		c0,8.975-7.274,16.25-16.248,16.25c-8.976,0-16.251-7.275-16.251-16.25c0-8.975,7.275-16.25,16.251-16.25
		C530.055,53.792,537.329,61.067,537.329,70.042"/>
	<path fill="#41A6A9" stroke="#000000" stroke-width="5" stroke-miterlimit="10" d="M203.611,227.894
		c0,54.644-44.299,98.939-98.942,98.939c-54.641,0-98.936-44.295-98.936-98.939c0-54.644,44.295-98.939,98.936-98.939
		C159.313,128.955,203.611,173.25,203.611,227.894"/>
	<path fill="#6D6E71" stroke="#000000" stroke-width="5" stroke-miterlimit="10" d="M155.216,227.894
		c0,27.915-22.633,50.543-50.547,50.543c-27.913,0-50.543-22.628-50.543-50.543c0-27.914,22.63-50.543,50.543-50.543
		C132.583,177.351,155.216,199.98,155.216,227.894"/>
	<path fill="#EEEFEF" stroke="#000000" stroke-width="5" stroke-miterlimit="10" d="M129.404,227.894
		c0,13.66-11.075,24.734-24.735,24.734c-13.658,0-24.733-11.074-24.733-24.734s11.075-24.734,24.733-24.734
		C118.329,203.16,129.404,214.234,129.404,227.894"/>
</g>
</svg>
