<?xml version="1.0" encoding="utf-8"?>
<!-- Generator: Adobe Illustrator 16.0.0, SVG Export Plug-In . SVG Version: 6.00 Build 0)  -->
<!DOCTYPE svg PUBLIC "-//W3C//DTD SVG 1.1//EN" "http://www.w3.org/Graphics/SVG/1.1/DTD/svg11.dtd">
<svg version="1.1" id="圖層_1" xmlns="http://www.w3.org/2000/svg" xmlns:xlink="http://www.w3.org/1999/xlink" x="0px" y="0px"
	 width="1047px" height="134px" viewBox="0 0 1047 134" enable-background="new 0 0 1047 134" xml:space="preserve">
<g>
	<path fill="#419EA2" stroke="#000000" stroke-width="5" stroke-miterlimit="10" d="M992.313,6.057
		c-4.104-0.647-8.823-0.987-14.246-0.987H76.478v0.067C75.215,5.1,73.95,5.069,72.674,5.069c-2.929,0-5.599,0.101-8.045,0.291
		c-1.725-0.187-3.469-0.291-5.233-0.291C29.353,5.069,5,32.756,5,66.91s24.353,61.842,54.396,61.842
		c1.764,0,3.508-0.105,5.233-0.291c2.446,0.189,5.116,0.291,8.045,0.291c1.275,0,2.541-0.031,3.803-0.068v0.068h901.589
		c2.17,0,4.224-0.057,6.173-0.16c1.226,0.094,2.458,0.16,3.704,0.16c29.856,0,54.057-27.516,54.057-61.457
		C1042,35.028,1020.121,8.588,992.313,6.057"/>
	<path fill="#88B4B4" stroke="#000000" stroke-width="5" stroke-miterlimit="10" d="M972.041,20.398
		c-3.94-0.461-8.476-0.693-13.686-0.672L92.417,23.083v0.05c-1.212-0.023-2.427-0.039-3.653-0.035
		c-2.812,0.01-5.377,0.094-7.727,0.244c-1.653-0.131-3.332-0.201-5.027-0.195c-8.523,0.033-16.563,1.842-23.656,5.023
		c-9.744,4.37-17.699,11.327-22.678,19.824C26.012,54.248,23.963,61.338,24,68.842c0.034,6.281,1.526,12.26,4.199,17.691
		c8.014,16.297,26.642,27.682,48.283,27.598c1.696-0.007,3.371-0.09,5.024-0.234c2.352,0.131,4.916,0.195,7.729,0.185
		c1.226-0.005,2.441-0.032,3.653-0.063v0.049l865.939-3.357c2.083-0.008,4.055-0.057,5.93-0.141
		c1.176,0.064,2.359,0.109,3.557,0.104c28.674-0.111,51.814-20.441,51.686-45.408C1019.879,41.525,998.762,22.156,972.041,20.398"/>
	<path fill="#41A6A9" stroke="#000000" stroke-width="5" stroke-miterlimit="10" d="M125.697,67.129
		c0,24.162-19.587,43.75-43.75,43.75s-43.75-19.588-43.75-43.75s19.587-43.75,43.75-43.75S125.697,42.967,125.697,67.129"/>
	<path fill="#FFFFFF" stroke="#000000" stroke-width="5" stroke-miterlimit="10" d="M89.197,67.129c0,4.004-3.246,7.25-7.25,7.25
		s-7.25-3.246-7.25-7.25s3.246-7.25,7.25-7.25S89.197,63.125,89.197,67.129"/>
	<path fill="#41A6A9" stroke="#000000" stroke-width="5" stroke-miterlimit="10" d="M296.197,66.754
		c0,24.162-19.588,43.75-43.75,43.75s-43.75-19.588-43.75-43.75s19.588-43.75,43.75-43.75S296.197,42.592,296.197,66.754"/>
	<path fill="#FFFFFF" stroke="#000000" stroke-width="5" stroke-miterlimit="10" d="M259.697,66.754c0,4.004-3.246,7.25-7.25,7.25
		s-7.25-3.246-7.25-7.25s3.246-7.25,7.25-7.25S259.697,62.75,259.697,66.754"/>
	<path fill="#41A6A9" stroke="#000000" stroke-width="5" stroke-miterlimit="10" d="M472.863,66.754
		c0,24.162-19.588,43.75-43.75,43.75s-43.75-19.588-43.75-43.75s19.588-43.75,43.75-43.75S472.863,42.592,472.863,66.754"/>
	<path fill="#FFFFFF" stroke="#000000" stroke-width="5" stroke-miterlimit="10" d="M434.406,67.129c0,4.004-3.246,7.25-7.25,7.25
		s-7.25-3.246-7.25-7.25s3.246-7.25,7.25-7.25S434.406,63.125,434.406,67.129"/>
	<path fill="#41A6A9" stroke="#000000" stroke-width="5" stroke-miterlimit="10" d="M653.197,66.754
		c0,24.162-19.588,43.75-43.75,43.75s-43.75-19.588-43.75-43.75s19.588-43.75,43.75-43.75S653.197,42.592,653.197,66.754"/>
	<path fill="#FFFFFF" stroke="#000000" stroke-width="5" stroke-miterlimit="10" d="M616.697,66.754c0,4.004-3.246,7.25-7.25,7.25
		s-7.25-3.246-7.25-7.25s3.246-7.25,7.25-7.25S616.697,62.75,616.697,66.754"/>
	<path fill="#41A6A9" stroke="#000000" stroke-width="5" stroke-miterlimit="10" d="M832.531,66.91
		c0,24.163-19.588,43.75-43.75,43.75c-24.164,0-43.75-19.587-43.75-43.75c0-24.162,19.586-43.75,43.75-43.75
		C812.943,23.16,832.531,42.748,832.531,66.91"/>
	<path fill="#FFFFFF" stroke="#000000" stroke-width="5" stroke-miterlimit="10" d="M796.031,67.129c0,4.004-3.246,7.25-7.25,7.25
		s-7.25-3.246-7.25-7.25s3.246-7.25,7.25-7.25S796.031,63.125,796.031,67.129"/>
	<path fill="#41A6A9" stroke="#000000" stroke-width="5" stroke-miterlimit="10" d="M1009.781,66.754
		c0,24.163-19.588,43.75-43.75,43.75c-24.164,0-43.75-19.587-43.75-43.75c0-24.162,19.586-43.75,43.75-43.75
		C990.193,23.004,1009.781,42.592,1009.781,66.754"/>
	<path fill="#FFFFFF" stroke="#000000" stroke-width="5" stroke-miterlimit="10" d="M973.281,66.973c0,4.004-3.246,7.25-7.25,7.25
		s-7.25-3.246-7.25-7.25s3.246-7.25,7.25-7.25S973.281,62.969,973.281,66.973"/>
</g>
</svg>
