<?xml version="1.0" encoding="utf-8"?>
<!-- Generator: Adobe Illustrator 16.0.0, SVG Export Plug-In . SVG Version: 6.00 Build 0)  -->
<!DOCTYPE svg PUBLIC "-//W3C//DTD SVG 1.1//EN" "http://www.w3.org/Graphics/SVG/1.1/DTD/svg11.dtd">
<svg version="1.1" id="圖層_1" xmlns="http://www.w3.org/2000/svg" xmlns:xlink="http://www.w3.org/1999/xlink" x="0px" y="0px"
	 width="906px" height="134px" viewBox="0 0 906 134" enable-background="new 0 0 906 134" xml:space="preserve">
<g>
	<path fill="#419EA2" stroke="#000000" stroke-width="5" stroke-miterlimit="10" d="M857.479,6.216
		c-3.545-0.648-7.621-0.988-12.309-0.988H66.172v0.066c-1.091-0.037-2.185-0.066-3.287-0.066c-2.53,0-4.837,0.102-6.951,0.291
		c-1.489-0.188-2.996-0.291-4.521-0.291c-25.958,0-47,27.688-47,61.84c0,34.154,21.042,61.842,47,61.842
		c1.525,0,3.032-0.104,4.521-0.291c2.114,0.189,4.421,0.291,6.951,0.291c1.102,0,2.196-0.031,3.287-0.066v0.066h778.999
		c1.877,0,3.65-0.057,5.336-0.16c1.059,0.094,2.123,0.16,3.199,0.16c25.795,0,46.707-27.516,46.707-61.455
		C900.413,35.187,881.509,8.745,857.479,6.216"/>
	<path fill="#88B4B4" stroke="#000000" stroke-width="5" stroke-miterlimit="10" d="M840.677,22.302
		c-3.408-0.477-7.328-0.727-11.834-0.727H79.819v0.049c-1.05-0.025-2.101-0.049-3.161-0.049c-2.432,0-4.65,0.074-6.684,0.215
		c-1.431-0.137-2.88-0.215-4.347-0.215c-24.958,0-45.191,20.369-45.191,45.492c0,25.125,20.233,45.494,45.191,45.494
		c1.467,0,2.916-0.078,4.347-0.215c2.034,0.141,4.252,0.215,6.684,0.215c1.06,0,2.111-0.023,3.161-0.051v0.051h749.023
		c1.805,0,3.508-0.041,5.129-0.119c1.02,0.07,2.041,0.119,3.076,0.119c24.803,0,44.91-20.242,44.91-45.209
		C881.958,43.614,863.78,24.163,840.677,22.302"/>
	<path fill="#41A6A9" stroke="#000000" stroke-width="5" stroke-miterlimit="10" d="M132.464,67.286
		c0,24.164-19.587,43.75-43.75,43.75s-43.75-19.586-43.75-43.75c0-24.162,19.587-43.75,43.75-43.75S132.464,43.124,132.464,67.286"
		/>
	<path fill="#37504D" stroke="#000000" stroke-width="5" stroke-miterlimit="10" d="M95.964,67.286c0,4.004-3.246,7.25-7.25,7.25
		s-7.25-3.246-7.25-7.25s3.246-7.25,7.25-7.25S95.964,63.282,95.964,67.286"/>
	<path fill="#41A6A9" stroke="#000000" stroke-width="5" stroke-miterlimit="10" d="M310.964,66.911
		c0,24.164-19.587,43.75-43.75,43.75s-43.75-19.586-43.75-43.75c0-24.162,19.587-43.75,43.75-43.75S310.964,42.749,310.964,66.911"
		/>
	<path fill="#37504D" stroke="#000000" stroke-width="5" stroke-miterlimit="10" d="M274.464,66.911c0,4.004-3.246,7.25-7.25,7.25
		s-7.25-3.246-7.25-7.25s3.246-7.25,7.25-7.25S274.464,62.907,274.464,66.911"/>
	<path fill="#41A6A9" stroke="#000000" stroke-width="5" stroke-miterlimit="10" d="M493.631,66.911
		c0,24.164-19.588,43.75-43.75,43.75s-43.75-19.586-43.75-43.75c0-24.162,19.588-43.75,43.75-43.75S493.631,42.749,493.631,66.911"
		/>
	<path fill="#37504D" stroke="#000000" stroke-width="5" stroke-miterlimit="10" d="M455.174,67.286c0,4.004-3.246,7.25-7.25,7.25
		c-4.006,0-7.25-3.246-7.25-7.25s3.244-7.25,7.25-7.25C451.928,60.036,455.174,63.282,455.174,67.286"/>
	<path fill="#41A6A9" stroke="#000000" stroke-width="5" stroke-miterlimit="10" d="M676.965,66.911
		c0,24.164-19.588,43.75-43.75,43.75c-24.164,0-43.75-19.586-43.75-43.75c0-24.162,19.586-43.75,43.75-43.75
		C657.377,23.161,676.965,42.749,676.965,66.911"/>
	<path fill="#37504D" stroke="#000000" stroke-width="5" stroke-miterlimit="10" d="M640.465,66.911c0,4.004-3.246,7.25-7.25,7.25
		c-4.006,0-7.25-3.246-7.25-7.25s3.244-7.25,7.25-7.25C637.219,59.661,640.465,62.907,640.465,66.911"/>
	<path fill="#41A6A9" stroke="#000000" stroke-width="5" stroke-miterlimit="10" d="M857.298,67.067
		c0,24.164-19.588,43.75-43.75,43.75s-43.75-19.586-43.75-43.75c0-24.162,19.588-43.75,43.75-43.75S857.298,42.905,857.298,67.067"
		/>
	<path fill="#37504D" stroke="#000000" stroke-width="5" stroke-miterlimit="10" d="M820.798,67.286c0,4.004-3.246,7.25-7.25,7.25
		s-7.25-3.246-7.25-7.25s3.246-7.25,7.25-7.25S820.798,63.282,820.798,67.286"/>
</g>
</svg>
