<?xml version="1.0" encoding="utf-8"?>
<!-- Generator: Adobe Illustrator 16.0.0, SVG Export Plug-In . SVG Version: 6.00 Build 0)  -->
<!DOCTYPE svg PUBLIC "-//W3C//DTD SVG 1.1//EN" "http://www.w3.org/Graphics/SVG/1.1/DTD/svg11.dtd">
<svg version="1.1" id="圖層_1" xmlns="http://www.w3.org/2000/svg" xmlns:xlink="http://www.w3.org/1999/xlink" x="0px" y="0px"
	 width="906px" height="134px" viewBox="0 0 906 134" enable-background="new 0 0 906 134" xml:space="preserve">
<g>
	<path fill="#419EA2" stroke="#000000" stroke-width="5" stroke-miterlimit="10" d="M858.161,5.93
		c-3.547-0.648-7.623-0.988-12.309-0.988H66.854v0.067c-1.091-0.037-2.185-0.067-3.286-0.067c-2.531,0-4.838,0.101-6.951,0.291
		c-1.49-0.187-2.997-0.291-4.521-0.291c-25.958,0-47,27.687-47,61.841c0,34.154,21.042,61.842,47,61.842
		c1.524,0,3.031-0.105,4.521-0.291c2.113,0.189,4.42,0.291,6.951,0.291c1.102,0,2.195-0.031,3.286-0.068v0.068h778.999
		c1.875,0,3.648-0.057,5.334-0.16c1.059,0.094,2.123,0.16,3.199,0.16c25.797,0,46.707-27.516,46.707-61.457
		C901.093,34.901,882.188,8.46,858.161,5.93"/>
	<path fill="#88B4B4" stroke="#000000" stroke-width="5" stroke-miterlimit="10" d="M841.153,20.272
		c-3.41-0.462-7.332-0.694-11.838-0.673L80.3,22.956v0.049c-1.049-0.023-2.1-0.039-3.16-0.035c-2.432,0.011-4.65,0.095-6.683,0.244
		c-1.431-0.13-2.882-0.201-4.349-0.194c-7.373,0.033-14.327,1.842-20.462,5.023c-8.428,4.37-15.31,11.327-19.615,19.824
		c-3.17,6.254-4.942,13.343-4.91,20.848c0.029,6.281,1.32,12.26,3.632,17.691c6.933,16.297,23.045,27.682,41.764,27.598
		c1.467-0.007,2.916-0.09,4.346-0.234c2.035,0.131,4.252,0.195,6.686,0.185c1.061-0.005,2.111-0.032,3.16-0.063v0.049l749.016-3.357
		c1.803-0.008,3.508-0.057,5.129-0.141c1.018,0.064,2.041,0.109,3.076,0.104c24.803-0.111,44.818-20.441,44.707-45.409
		C882.53,41.399,864.265,22.03,841.153,20.272"/>
	<path fill="#41A6A9" stroke="#000000" stroke-width="5" stroke-miterlimit="10" d="M133.146,67.002
		c0,24.162-19.587,43.75-43.75,43.75s-43.75-19.588-43.75-43.75c0-24.163,19.587-43.75,43.75-43.75S133.146,42.839,133.146,67.002"
		/>
	<path fill="#FFFFFF" stroke="#000000" stroke-width="5" stroke-miterlimit="10" d="M96.646,67.002c0,4.004-3.246,7.25-7.25,7.25
		s-7.25-3.246-7.25-7.25s3.246-7.25,7.25-7.25S96.646,62.998,96.646,67.002"/>
	<path fill="#41A6A9" stroke="#000000" stroke-width="5" stroke-miterlimit="10" d="M311.646,66.627
		c0,24.162-19.588,43.75-43.75,43.75s-43.75-19.588-43.75-43.75c0-24.163,19.588-43.75,43.75-43.75S311.646,42.464,311.646,66.627"
		/>
	<path fill="#FFFFFF" stroke="#000000" stroke-width="5" stroke-miterlimit="10" d="M275.146,66.627c0,4.004-3.246,7.25-7.25,7.25
		s-7.25-3.246-7.25-7.25s3.246-7.25,7.25-7.25S275.146,62.623,275.146,66.627"/>
	<path fill="#41A6A9" stroke="#000000" stroke-width="5" stroke-miterlimit="10" d="M494.312,66.627
		c0,24.162-19.588,43.75-43.75,43.75s-43.75-19.588-43.75-43.75c0-24.163,19.588-43.75,43.75-43.75S494.312,42.464,494.312,66.627"
		/>
	<path fill="#FFFFFF" stroke="#000000" stroke-width="5" stroke-miterlimit="10" d="M455.854,67.002c0,4.004-3.246,7.25-7.25,7.25
		s-7.25-3.246-7.25-7.25s3.246-7.25,7.25-7.25S455.854,62.998,455.854,67.002"/>
	<path fill="#41A6A9" stroke="#000000" stroke-width="5" stroke-miterlimit="10" d="M677.646,66.627
		c0,24.162-19.588,43.75-43.75,43.75s-43.75-19.588-43.75-43.75c0-24.163,19.588-43.75,43.75-43.75S677.646,42.464,677.646,66.627"
		/>
	<path fill="#FFFFFF" stroke="#000000" stroke-width="5" stroke-miterlimit="10" d="M641.146,66.627c0,4.004-3.246,7.25-7.25,7.25
		s-7.25-3.246-7.25-7.25s3.246-7.25,7.25-7.25S641.146,62.623,641.146,66.627"/>
	<path fill="#41A6A9" stroke="#000000" stroke-width="5" stroke-miterlimit="10" d="M857.979,66.783
		c0,24.163-19.588,43.75-43.75,43.75c-24.164,0-43.75-19.587-43.75-43.75c0-24.163,19.586-43.75,43.75-43.75
		C838.392,23.033,857.979,42.621,857.979,66.783"/>
	<path fill="#FFFFFF" stroke="#000000" stroke-width="5" stroke-miterlimit="10" d="M821.479,67.002c0,4.004-3.246,7.25-7.25,7.25
		s-7.25-3.246-7.25-7.25s3.246-7.25,7.25-7.25S821.479,62.998,821.479,67.002"/>
</g>
</svg>
