<?xml version="1.0" encoding="utf-8"?>
<!-- Generator: Adobe Illustrator 16.0.0, SVG Export Plug-In . SVG Version: 6.00 Build 0)  -->
<!DOCTYPE svg PUBLIC "-//W3C//DTD SVG 1.1//EN" "http://www.w3.org/Graphics/SVG/1.1/DTD/svg11.dtd">
<svg version="1.1" id="圖層_1" xmlns="http://www.w3.org/2000/svg" xmlns:xlink="http://www.w3.org/1999/xlink" x="0px" y="0px"
	 width="94px" height="230px" viewBox="0 0 94 230" enable-background="new 0 0 94 230" xml:space="preserve">
<g>
	<path fill="#555656" stroke="#000000" stroke-width="5" stroke-miterlimit="10" d="M20.527,143.479v10.316l1.998,3.801
		c0,0,2.748,4.072,4.496,5.429c1.749,1.358,6.746,7.059,6.746,7.059l4.996,5.973c0,0,1.749,8.145,1.749,9.772v14.931v13.031
		l-1.249,9.772l9.243,1.358c0,0,0.25-6.517,0-7.33c-0.25-0.814-0.999-9.502-0.999-9.502l1.109-9.23l-1.359-11.401v-11.401
		l-1.41-10.588v-5.972l5.157-2.172l4.997-5.158l6.245-5.972l3.792-8.145l-4.542-1.493L58,144.295l-3.748,3.8l-5.745,3.259
		l-2.659,2.442v-5.43l1.91-4.343l-0.594-7.1l-6.152-0.366v5.552l-0.499,5.442l-0.5,2.443v3.529l-0.5,4.615v2.985l0.251,4.344
		l-0.251,2.715l-3.497-1.629l-3.248-5.43l-3.496-2.715l-2-2.985l-1.248-3.258l-0.251-4.887l-0.267-5.261l-4.979-0.333V143.479z"/>
	<path fill="#68BF98" stroke="#000000" stroke-width="5" stroke-miterlimit="10" d="M49.632,5.166c0,0-7.87-1.221-10.868,3.258
		c-2.997,4.479-4.121,8.958-3.748,12.623c0.376,3.665-0.888,6.515-0.068,8.958c0.819,2.443-2.555,6.108-4.428,8.145
		c-1.873,2.036-9.368,3.665-10.867,6.922c-1.498,3.257-5.246,4.479-5.246,7.737s0.749,5.701,0,9.366
		c-0.75,3.665-2.624,4.479,0,7.329c2.623,2.851,4.122,6.923,2.248,8.552c-1.873,1.629-7.869,5.7-8.244,8.144
		c-0.374,2.443-3.372,7.33-2.248,10.995s2.997,11.809,2.997,11.809l-3.248,13.031c0,0-2.124,10.18,0,13.437
		c2.125,3.258,8.495,9.366,9.995,8.959c1.497-0.407,14.988,1.668,19.109,0.02c4.122-1.648,15.739-5.313,16.864-6.127
		c1.124-0.814,11.616,0.814,13.865,0.406c2.248-0.406,8.993-2.442,9.743-4.071c0.749-1.629,7.869-6.923,8.993-10.181
		s3.747-13.845,3.747-17.102c0-3.258-7.495-11.81-8.619-14.252c-1.124-2.443,2.998-17.917,1.124-24.84
		c-1.874-6.922-12.74-19.953-15.738-24.025c-2.998-4.072,2.623-16.695,0.374-19.954c-2.248-3.257-7.868-13.437-9.367-13.845
		C54.503,10.052,49.632,5.166,49.632,5.166"/>
	<path fill="#4C886B" d="M77.203,93.039c-1.066-2.359,2.843-17.303,1.066-23.987c-1.778-6.686-12.082-19.27-14.925-23.202
		s2.487-16.124,0.354-19.269c-2.132-3.146-7.462-12.978-8.883-13.371c-1.422-0.393-6.041-5.111-6.041-5.111l-2.876-0.945v131.518
		c3.908-1.593,3.054-0.604,5.009-1.981c1.079-0.76,11.015,0.786,13.146,0.395c2.133-0.395,8.528-2.36,9.239-3.934
		c0.711-1.572,7.463-6.685,8.529-9.83c1.065-3.146,3.553-13.371,3.553-16.518C85.376,103.658,78.27,95.399,77.203,93.039"/>
</g>
</svg>
