<?xml version="1.0" encoding="utf-8"?>
<!-- Generator: Adobe Illustrator 21.1.0, SVG Export Plug-In . SVG Version: 6.00 Build 0)  -->
<svg version="1.1" id="圖層_1" xmlns="http://www.w3.org/2000/svg" xmlns:xlink="http://www.w3.org/1999/xlink" x="0px" y="0px"
	 viewBox="0 0 91 265" style="enable-background:new 0 0 91 265;" xml:space="preserve">
<style type="text/css">
	.st0{fill:#7FA9D0;stroke:#000000;stroke-width:5;stroke-miterlimit:10;}
</style>
<path class="st0" d="M63.3,196.3V79.4c0-0.9,0.5-1.7,1.3-2c14.2-6.9,24-21.5,24-38.3c0-15.6-8.3-29.2-20.8-36.6
	c-1.5-0.9-3.4,0.2-3.4,1.9v33.8c0,2.9-2.3,5.2-5.2,5.2H32.2c-2.9,0-5.2-2.3-5.2-5.2V4.7c0-1.8-1.9-2.8-3.5-1.9
	C11.4,10.3,3.4,23.7,3.4,39c0,16.9,9.8,31.4,24,38.3c0.8,0.4,1.3,1.2,1.3,2V196c0,0.8-0.5,1.6-1.2,2C16.5,204.3,9,216.1,9,229.7
	c0,13.6,7.4,25.5,18.4,31.8c1.5,0.9,3.4-0.2,3.4-2V232c0-1.2,1-2.3,2.3-2.3h25.8c1.2,0,2.3,1,2.3,2.3v27.2c0,1.7,1.9,2.8,3.4,1.9
	c10.7-6.4,17.8-18.1,17.8-31.4c0-13.4-7.2-25.1-17.9-31.5C63.8,197.8,63.3,197.1,63.3,196.3z"/>
</svg>
