<svg id="圖層_1" data-name="圖層 1" xmlns="http://www.w3.org/2000/svg" xmlns:xlink="http://www.w3.org/1999/xlink" viewBox="0 0 506.53 257.82"><defs><style>.cls-1{fill:none;}.cls-1,.cls-2{stroke:#464342;stroke-linecap:round;stroke-linejoin:round;stroke-width:6px;}.cls-2{fill:#fff;}.cls-3{fill:#d05250;}.cls-4{clip-path:url(#clip-path);}.cls-5{clip-path:url(#clip-path-2);}</style><clipPath id="clip-path" transform="translate(-645.19 -376.82)"><polygon class="cls-1" points="770.78 536.93 771.3 537.44 771.3 537.44 810.4 575.12 869.03 631.64 1148.72 411.1 770.78 536.93"/></clipPath><clipPath id="clip-path-2" transform="translate(-645.19 -376.82)"><polygon class="cls-1" points="651.9 422.36 729.86 497.49 1148.72 411.1 651.9 422.36"/></clipPath></defs><title>paintPlan</title><polygon class="cls-2" points="6.71 45.53 84.66 120.67 503.53 34.27 6.71 45.53"/><polygon class="cls-2" points="125.58 160.11 90.74 234.4 165.2 198.3 125.58 160.11"/><polygon class="cls-2" points="503.53 34.27 84.66 120.67 90.74 234.4 125.58 160.11 125.58 160.11 503.53 34.27"/><polygon class="cls-2" points="125.58 160.11 126.11 160.62 126.11 160.62 165.2 198.3 223.84 254.81 503.53 34.27 125.58 160.11"/><circle class="cls-3" cx="226.69" cy="205.97" r="28.43"/><circle class="cls-3" cx="170.71" cy="73.99" r="22.57"/><g class="cls-4"><circle class="cls-3" cx="397" cy="116.12" r="28.43"/><circle class="cls-3" cx="265.67" cy="116.12" r="28.43"/></g><polygon class="cls-1" points="125.58 160.11 126.11 160.62 126.11 160.62 165.2 198.3 223.84 254.81 503.53 34.27 125.58 160.11"/><g class="cls-5"><circle class="cls-3" cx="28.43" cy="52.44" r="28.43"/><circle class="cls-3" cx="328.47" cy="28.43" r="28.43"/></g><polygon class="cls-1" points="6.71 45.53 84.66 120.67 503.53 34.27 6.71 45.53"/></svg>