<?xml version="1.0" encoding="utf-8"?>
<!-- Generator: Adobe Illustrator 21.1.0, SVG Export Plug-In . SVG Version: 6.00 Build 0)  -->
<svg version="1.1" id="圖層_1" xmlns="http://www.w3.org/2000/svg" xmlns:xlink="http://www.w3.org/1999/xlink" x="0px" y="0px"
	 viewBox="0 0 61 82" style="enable-background:new 0 0 61 82;" xml:space="preserve">
<style type="text/css">
	.st0{fill:#FFFFFF;}
	.st1{fill:#212121;}
</style>
<g>
	<path class="st0" d="M46.6,56.7c0-0.4,0.2-0.6,0.4-0.6c0-4.4-0.2-8.8-1-13.1c-0.5-2.7-0.8-5.4-1-8.1c-0.3-5.3-0.5-10.7-0.7-16
		c-0.8,0.1-0.8-0.1-0.9-1.2c-0.2-5.3-0.3-10.5-0.5-15.8c0-0.2,0-0.4,0-0.4c-1.8,2-3.6,4.2-5.6,6.2C32.8,12,28,16.3,23.3,20.6
		C16.8,26.3,10.4,32.1,4,37.9C3,38.8,2,39.7,1,40.6c0.2,0.2,0.4,0.3,0.5,0.5C5,44.2,8.4,47.3,12,50.4c4.4,3.8,8.9,7.6,13.5,11.3
		c4.8,3.9,9.6,7.7,14.4,11.6c1.8,1.4,3.4,3,5.3,4.6c0.1-1.5,0.3-2.9,0.4-4.3c0.2-2.5,0.2-5,0.4-7.5C46.1,63,46.4,59.9,46.6,56.7z"/>
	<path class="st1" d="M57.7,39.4c-2-9.7-3.5-21-4.7-30.8c-0.2-1.9-1-2.9-2.6-3.7c-0.8-0.5-2.3-1.3-2.3-1.3c-1.7-1-3.4-1.9-5-2.9
		C42.6,0.4,42.3,0.5,42,1c-0.4,0.6-0.8,1.2-1.3,1.7c-2.8,3-5.6,6-8.6,8.8c-4.5,4.2-9.3,8.2-13.9,12.4c-4.1,3.6-8.1,7.3-12.2,11
		c-2,1.8-3.9,3.6-5.8,5.5c-0.3,0.3-0.4,0.6,0,1C3.2,43.8,6.1,46.4,9,49c3.4,3,6.6,6,10.1,8.8c4.6,3.8,9.3,7.4,14,11.2
		c3.4,2.7,6.7,5.6,10,8.4c0.9,0.8,1.6,1.5,3,1.6c0.3,0,2.4,0.4,2.6,0.5c0.5,0.1,4.7,1.3,5.9,1.6c0.4,0,3.2,0,3.5,0
		c0.5-4.6,1.1-9.2,1.6-13.8C60.6,57.8,59.6,48.7,57.7,39.4z M39.8,73.2c-4.8-3.9-9.6-7.7-14.4-11.6c-4.5-3.7-9-7.5-13.5-11.3
		C8.4,47.3,5,44.2,1.5,41c-0.2-0.1-0.3-0.3-0.5-0.5C2,39.7,3,38.8,4,37.9c6.4-5.8,12.9-11.6,19.3-17.4C28,16.3,32.8,12,37.4,7.6
		c1.9-1.8,3.6-3.9,5.3-5.8c0,0.3,0.1,0.6,0.1,0.9c0,0,0,0,0,0c0.1,0.8,0.2,1.6,0.2,2.5c0,0.1,0,0.1,0,0.2c0.1,2.8,0.2,5.6,0.3,8.5
		c0,1.3,0.1,2.5,0.1,3.8c0,0.3,0,0.5,0.1,0.7c0.2,5.5,0.4,11,0.7,16.5c0.1,2.7,0.5,5.4,1,8.1c1.9,10.9,0.5,21.8-0.1,32.7
		c0,0.1,0,0.3-0.1,0.4c0,0.2,0,0.4,0,0.7c0,0.3-0.1,0.7-0.1,1.1C43.2,76.2,41.5,74.7,39.8,73.2z"/>
</g>
</svg>
