<?xml version="1.0" encoding="utf-8"?>
<!-- Generator: Adobe Illustrator 21.1.0, SVG Export Plug-In . SVG Version: 6.00 Build 0)  -->
<svg version="1.1" id="圖層_1" xmlns="http://www.w3.org/2000/svg" xmlns:xlink="http://www.w3.org/1999/xlink" x="0px" y="0px"
	 viewBox="0 0 55 224" style="enable-background:new 0 0 55 224;" xml:space="preserve">
<style type="text/css">
	.st0{fill:#FFFFFF;}
	.st1{fill:#212121;}
</style>
<g>
	<path class="st0" d="M0.8,210.5V18.1C0.8,9,8.2,1.7,17.3,1.7h8c9.1,0,16.5,7.4,16.5,16.5v14l11.5,11.5L41.8,55.9v150.8
		c0,9.1-7.4,16.5-16.5,16.5H13.5C6.5,223.2,0.8,217.5,0.8,210.5z"/>
	<path class="st1" d="M42.6,56.2v150.4c0,9.5-7.8,17.3-17.3,17.3H13.5C6.1,224,0,217.9,0,210.5L0,18.1C0,8.6,7.8,0.9,17.3,0.9h8
		c9.5,0,17.3,7.8,17.3,17.3v13.7l11.8,11.8L42.6,56.2z M1.6,210.5c0,6.6,5.3,11.9,11.9,11.9h11.8c8.6,0,15.7-7,15.7-15.7V55.6
		l11.2-11.9L41,32.5V18.1c0-8.6-7-15.7-15.7-15.7h-8c-8.6,0-15.7,7-15.7,15.7V210.5z"/>
</g>
</svg>
