<?xml version="1.0" encoding="utf-8"?>
<!-- Generator: Adobe Illustrator 21.1.0, SVG Export Plug-In . SVG Version: 6.00 Build 0)  -->
<svg version="1.1" id="圖層_1" xmlns="http://www.w3.org/2000/svg" xmlns:xlink="http://www.w3.org/1999/xlink" x="0px" y="0px"
	 viewBox="0 0 121 48" style="enable-background:new 0 0 121 48;" xml:space="preserve">
<style type="text/css">
	.st0{fill:#F3DE6B;}
	.st1{fill:#212121;}
	.st2{fill:#82AFD9;}
</style>
<g>
	<g>
		<path class="st0" d="M11,19h10c0,0,0-1,0-3s2-5,5-5s5.5,1,5.5,5.5S29,23,27,25S9,45,9,45h33v-9H29c0,0,8-8,10-11s4-7,1-15
			S28,2,25,2S12,6,11,19z"/>
		<path class="st1" d="M42.9,45.9H7l1.3-1.5c0.7-0.7,16-18,18-20l0.6-0.5c1.8-1.8,3.7-3.6,3.7-7.3c0-3.8-1.8-4.6-4.6-4.6
			c-2.5,0-4.1,2.7-4.1,4.1v3.9H10l0.1-1C11.1,5.5,21.5,1.1,25,1.1c3.1,0,12.6,0,15.8,8.6c3,8,1.2,12.3-1.1,15.8
			c-1.5,2.3-6.2,7.1-8.6,9.6h11.7V45.9z M11,44.1h30.1v-7.2H26.8l1.5-1.5c0.1-0.1,8-8,9.9-10.9s3.7-6.6,0.9-14.2
			C36.4,2.9,27.8,2.9,25,2.9c-1.8,0-11.6,2.8-13,15.2h8.1V16c0-2.4,2.3-5.9,5.9-5.9c4.3,0,6.4,2.1,6.4,6.4c0,4.5-2.3,6.8-4.2,8.6
			l-0.5,0.5C26,27.3,14.9,39.7,11,44.1z"/>
	</g>
	<g>
		<path class="st2" d="M4,19h10c0,0,0-1,0-3s2-5,5-5s5.5,1,5.5,5.5S22,23,20,25S2,45,2,45h33v-9H22c0,0,8-8,10-11s4-7,1-15
			S21,2,18,2S5,6,4,19z"/>
		<path class="st1" d="M35.9,45.9H0l1.3-1.5c0.7-0.7,16-18,18-20l0.6-0.5c1.8-1.8,3.7-3.6,3.7-7.3c0-3.8-1.8-4.6-4.6-4.6
			c-2.5,0-4.1,2.7-4.1,4.1v3.9H3l0.1-1C4.1,5.5,14.5,1.1,18,1.1c3.1,0,12.6,0,15.8,8.6c3,8,1.2,12.3-1.1,15.8
			c-1.5,2.3-6.2,7.1-8.6,9.6h11.7V45.9z M4,44.1h30.1v-7.2H19.8l1.5-1.5c0.1-0.1,8-8,9.9-10.9s3.7-6.6,0.9-14.2
			C29.4,2.9,20.8,2.9,18,2.9c-1.8,0-11.6,2.8-13,15.2h8.1V16c0-2.4,2.3-5.9,5.9-5.9c4.3,0,6.4,2.1,6.4,6.4c0,4.5-2.3,6.8-4.2,8.6
			l-0.5,0.5C19,27.3,7.9,39.7,4,44.1z"/>
	</g>
</g>
<g>
	<circle class="st0" cx="52.8" cy="40.1" r="6.2"/>
	<path class="st1" d="M52.8,47.2c-3.9,0-7.1-3.2-7.1-7.1s3.2-7.1,7.1-7.1c3.9,0,7.1,3.2,7.1,7.1S56.7,47.2,52.8,47.2z M52.8,34.9
		c-2.9,0-5.3,2.4-5.3,5.3s2.4,5.3,5.3,5.3s5.3-2.4,5.3-5.3S55.7,34.9,52.8,34.9z"/>
</g>
<g>
	<circle class="st2" cx="46.2" cy="40.1" r="6.2"/>
	<path class="st1" d="M46.2,47.2c-3.9,0-7.1-3.2-7.1-7.1s3.2-7.1,7.1-7.1c3.9,0,7.1,3.2,7.1,7.1S50.1,47.2,46.2,47.2z M46.2,34.9
		c-2.9,0-5.3,2.4-5.3,5.3s2.4,5.3,5.3,5.3s5.3-2.4,5.3-5.3S49.1,34.9,46.2,34.9z"/>
</g>
<g>
	<path class="st0" d="M77.9,47.7c-1.5,0-3.2-0.9-5-2.7c-1.4-1.4-2.9-2.1-4.3-2c-2.5,0.2-4.4,2.8-4.4,2.8c-0.5,0.7-1.4,0.8-2.1,0.3
		c-0.7-0.5-0.8-1.4-0.3-2.1c0.1-0.2,2.7-3.7,6.6-4c2.3-0.2,4.6,0.8,6.7,2.8c1.6,1.6,2.6,1.8,2.9,1.8c0.7-0.1,1.4-1.1,2-1.9
		c0.7-1.1,1.6-2.3,3-2.3c1.8,0,2.6,1.6,3.2,2.7c0.8,1.6,1,1.5,1.3,1.4c0.7-0.2,1.3-1,1.8-1.8c1-1.5,2.7-3.9,6.3-2.1
		c0.9,0.5,1.7,0.9,2.3,1.4c2.2,1.5,3.1,2.1,7-1.2c1.2-1,2.9-2.1,4.5-1.6c1.6,0.5,2,2.1,2.4,3.4c0.1,0.3,0.2,0.8,0.4,1.1
		c0,0,0.1,0,0.1,0l6-3c0.7-0.4,1.6-0.1,2,0.7c0.4,0.7,0.1,1.6-0.7,2l-6,3c-1,0.5-1.9,0.6-2.7,0.2c-1.3-0.6-1.7-2-2-3.2
		c-0.1-0.4-0.3-1-0.4-1.3c-0.2,0.1-0.7,0.3-1.6,1c-5.2,4.3-7.6,3.4-10.6,1.4c-0.6-0.4-1.3-0.8-2-1.2c-1.2-0.6-1.4-0.4-2.5,1.1
		c-0.7,1.1-1.7,2.4-3.3,2.9c-2.9,1-4.2-1.5-4.9-2.8c-0.1-0.3-0.3-0.6-0.5-0.9c-0.2,0.2-0.4,0.5-0.5,0.8c-0.9,1.3-2.1,3-4.2,3.2
		C78.2,47.7,78,47.7,77.9,47.7z"/>
</g>
</svg>
