<?xml version="1.0" encoding="utf-8"?>
<!-- Generator: Adobe Illustrator 21.1.0, SVG Export Plug-In . SVG Version: 6.00 Build 0)  -->
<svg version="1.1" id="圖層_1" xmlns="http://www.w3.org/2000/svg" xmlns:xlink="http://www.w3.org/1999/xlink" x="0px" y="0px"
	 viewBox="0 0 300 203" style="enable-background:new 0 0 300 203;" xml:space="preserve">
<style type="text/css">
	.st0{fill:#DC5453;}
	.st1{fill:#8EBFBF;}
</style>
<polygon class="st0" points="5.4,177 5.4,192.9 0,190.4 0,174.5 "/>
<polygon class="st1" points="5.4,149.1 5.4,165 0,162.5 0,146.6 "/>
<polygon class="st0" points="5.4,121.2 5.4,137.1 0,134.6 0,118.7 "/>
<polygon class="st1" points="5.4,93.2 5.4,109.2 0,106.7 0,90.8 "/>
<polygon class="st0" points="5.4,65.3 5.4,81.2 0,78.8 0,62.8 "/>
<polygon class="st1" points="5.4,37.4 5.4,53.3 0,50.8 0,34.9 "/>
<polygon class="st0" points="5.4,9.5 5.4,25.4 0,22.9 0,7 "/>
<polygon class="st0" points="300,177 300,192.9 294.6,190.4 294.6,174.5 "/>
<polygon class="st1" points="300,149.1 300,165 294.6,162.5 294.6,146.6 "/>
<polygon class="st0" points="300,121.2 300,137.1 294.6,134.6 294.6,118.7 "/>
<polygon class="st1" points="300,93.2 300,109.2 294.6,106.7 294.6,90.8 "/>
<polygon class="st0" points="300,65.3 300,81.2 294.6,78.8 294.6,62.8 "/>
<polygon class="st1" points="300,37.4 300,53.3 294.6,50.8 294.6,34.9 "/>
<polygon class="st0" points="300,9.5 300,25.4 294.6,22.9 294.6,7 "/>
<polygon class="st1" points="31.7,5.4 15.8,5.4 18.3,0 34.2,0 "/>
<polygon class="st0" points="59.6,5.4 43.7,5.4 46.2,0 62.1,0 "/>
<polygon class="st1" points="87.5,5.4 71.6,5.4 74.1,0 90,0 "/>
<polygon class="st0" points="115.5,5.4 99.5,5.4 102,0 117.9,0 "/>
<polygon class="st1" points="143.4,5.4 127.5,5.4 129.9,0 145.9,0 "/>
<polygon class="st0" points="171.3,5.4 155.4,5.4 157.9,0 173.8,0 "/>
<polygon class="st1" points="198.3,5.4 182.4,5.4 184.9,0 200.8,0 "/>
<polygon class="st0" points="227.1,5.4 211.2,5.4 213.7,0 229.6,0 "/>
<polygon class="st0" points="285.1,5.4 269.2,5.4 271.7,0 287.6,0 "/>
<polygon class="st1" points="255.1,5.4 239.2,5.4 241.6,0 257.6,0 "/>
<polygon class="st1" points="31.7,202.8 15.8,202.8 18.3,197.4 34.2,197.4 "/>
<polygon class="st0" points="59.6,202.8 43.7,202.8 46.2,197.4 62.1,197.4 "/>
<polygon class="st1" points="87.5,202.8 71.6,202.8 74.1,197.4 90,197.4 "/>
<polygon class="st0" points="115.5,202.8 99.5,202.8 102,197.4 117.9,197.4 "/>
<polygon class="st1" points="143.4,202.8 127.5,202.8 129.9,197.4 145.9,197.4 "/>
<polygon class="st0" points="171.3,202.8 155.4,202.8 157.9,197.4 173.8,197.4 "/>
<polygon class="st1" points="199.2,202.8 183.3,202.8 185.8,197.4 201.7,197.4 "/>
<polygon class="st0" points="227.1,202.8 211.2,202.8 213.7,197.4 229.6,197.4 "/>
<polygon class="st0" points="285.1,202.8 269.2,202.8 271.7,197.4 287.6,197.4 "/>
<polygon class="st1" points="255.1,202.8 239.2,202.8 241.6,197.4 257.6,197.4 "/>
</svg>
