<?xml version="1.0" encoding="utf-8"?>
<!-- Generator: Adobe Illustrator 21.1.0, SVG Export Plug-In . SVG Version: 6.00 Build 0)  -->
<svg version="1.1" id="圖層_1" xmlns="http://www.w3.org/2000/svg" xmlns:xlink="http://www.w3.org/1999/xlink" x="0px" y="0px"
	 viewBox="0 0 124 74" style="enable-background:new 0 0 124 74;" xml:space="preserve">
<style type="text/css">
	.st0{fill:#8EBFBF;}
	.st1{fill:#212121;}
	.st2{fill:#FFFFFF;}
	.st3{fill:#F3DE6B;}
	.st4{fill:#82AFD9;}
</style>
<g>
	<g>
		<rect x="20.4" y="2.7" class="st0" width="83.8" height="22"/>
		<path class="st1" d="M104.8,25.4H19.7V2h85.2V25.4z M21,24h82.4V3.4H21V24z"/>
	</g>
	<g>
		<polygon class="st2" points="3.2,18.5 3.2,63.8 121.3,63.8 121.3,18.5 107.6,8.9 98,8.9 98,14.4 25.2,14.4 25.2,8.9 16.9,8.9 		
			"/>
		<path class="st1" d="M121.3,64.5H3.2c-0.4,0-0.7-0.3-0.7-0.7V18.5c0-0.2,0.1-0.4,0.3-0.6l13.7-9.6c0.1-0.1,0.3-0.1,0.4-0.1h8.2
			c0.4,0,0.7,0.3,0.7,0.7v4.8h71.4V8.9c0-0.4,0.3-0.7,0.7-0.7h9.6c0.1,0,0.3,0,0.4,0.1l13.7,9.6c0.2,0.1,0.3,0.3,0.3,0.6v45.3
			C122,64.2,121.7,64.5,121.3,64.5z M3.9,63.1h116.8V18.8l-13.3-9.3h-8.7v4.8c0,0.4-0.3,0.7-0.7,0.7H25.2c-0.4,0-0.7-0.3-0.7-0.7
			V9.6h-7.3L3.9,18.8V63.1z"/>
	</g>
	<g>
		<path class="st1" d="M92,64.5H28.8c-0.2,0-0.5-0.1-0.6-0.3c-0.1-0.2-0.1-0.4,0-0.7l6-12.4c0.1-0.2,0.4-0.4,0.6-0.4h50.8
			c0.3,0,0.5,0.1,0.6,0.4l6.4,12.4c0.1,0.2,0.1,0.5,0,0.7C92.5,64.4,92.3,64.5,92,64.5z M29.9,63.1h61l-5.7-11h-50L29.9,63.1z"/>
	</g>
	<g>
		<rect x="10.1" y="63.8" class="st2" width="104.4" height="6.9"/>
		<path class="st1" d="M114.4,71.4H10.1c-0.4,0-0.7-0.3-0.7-0.7v-6.9c0-0.4,0.3-0.7,0.7-0.7h104.4c0.4,0,0.7,0.3,0.7,0.7v6.9
			C115.1,71.1,114.8,71.4,114.4,71.4z M10.7,70h103v-5.5h-103V70z"/>
	</g>
	<g>
		<path class="st1" d="M115.8,21.9H8.7c-0.4,0-0.7-0.3-0.7-0.7s0.3-0.7,0.7-0.7h107.1c0.4,0,0.7,0.3,0.7,0.7S116.2,21.9,115.8,21.9z
			"/>
	</g>
	<g>
		<rect x="3.2" y="36.3" class="st3" width="118.1" height="11"/>
		<path class="st1" d="M122,48H2.5V35.7H122V48z M3.9,46.6h116.8V37H3.9V46.6z"/>
	</g>
	<g>
		<circle class="st3" cx="100.7" cy="29.5" r="4.8"/>
		<path class="st1" d="M100.7,35c-3,0-5.5-2.5-5.5-5.5c0-3,2.5-5.5,5.5-5.5s5.5,2.5,5.5,5.5C106.2,32.5,103.7,35,100.7,35z
			 M100.7,25.4c-2.3,0-4.1,1.8-4.1,4.1s1.8,4.1,4.1,4.1s4.1-1.8,4.1-4.1S103,25.4,100.7,25.4z"/>
	</g>
	<g>
		<rect x="82.2" y="26" class="st4" width="9.6" height="6.9"/>
		<path class="st1" d="M92.5,33.6h-11v-8.2h11V33.6z M82.9,32.2h8.2v-5.5h-8.2V32.2z"/>
	</g>
</g>
</svg>
