<?xml version="1.0" encoding="utf-8"?>
<!-- Generator: Adobe Illustrator 21.1.0, SVG Export Plug-In . SVG Version: 6.00 Build 0)  -->
<svg version="1.1" id="圖層_1" xmlns="http://www.w3.org/2000/svg" xmlns:xlink="http://www.w3.org/1999/xlink" x="0px" y="0px"
	 viewBox="0 0 199 522" style="enable-background:new 0 0 199 522;" xml:space="preserve">
<style type="text/css">
	.st0{fill:#212121;}
	.st1{fill:#F08B8C;}
</style>
<g>
	<g>
		<path class="st0" d="M123.5,483.8H50.7V343.4c0-20.1,16.3-36.4,36.4-36.4s36.4,16.3,36.4,36.4V483.8z M56.9,477.6h60.3V343.4
			c0-16.6-13.5-30.2-30.2-30.2s-30.2,13.5-30.2,30.2V477.6z"/>
	</g>
	<g>
		<rect x="3.8" y="397.5" class="st1" width="191.4" height="120.7"/>
		<path class="st0" d="M199,521.9H0.1V393.7H199V521.9z M7.6,514.4h183.9V401.2H7.6V514.4z"/>
	</g>
	<g>
		<path class="st0" d="M140.1,483.8H67.3V343.4c0-20.1,16.3-36.4,36.4-36.4s36.4,16.3,36.4,36.4V483.8z M73.5,477.6h60.3V343.4
			c0-16.6-13.5-30.2-30.2-30.2s-30.2,13.5-30.2,30.2V477.6z"/>
	</g>
	<g>
		<rect x="3.8" y="477.6" class="st0" width="191.4" height="6.2"/>
	</g>
</g>
<g>
	<rect x="90.2" y="0.1" class="st0" width="6.2" height="312.1"/>
</g>
</svg>
