<?xml version="1.0" encoding="utf-8"?>
<!-- Generator: Adobe Illustrator 21.1.0, SVG Export Plug-In . SVG Version: 6.00 Build 0)  -->
<svg version="1.1" id="圖層_1" xmlns="http://www.w3.org/2000/svg" xmlns:xlink="http://www.w3.org/1999/xlink" x="0px" y="0px"
	 viewBox="0 0 42 44" style="enable-background:new 0 0 42 44;" xml:space="preserve">
<style type="text/css">
	.st0{fill:#F3DE6B;}
	.st1{fill:#212121;}
</style>
<g>
	<path class="st0" d="M20.6,37.6c-0.7-3.9-2.4-7.1-4.9-9.5c-2.8-2.6-6.2-3.9-9-4.5c4.1-0.8,7.4-2.6,9.9-5.4c2.3-2.6,3.5-5.7,4-8.6
		c0.6,2.8,1.8,6,4,8.6c2.4,2.8,5.7,4.6,9.8,5.4c-2.8,0.6-6.2,1.9-9,4.5C22.9,30.5,21.3,33.7,20.6,37.6z"/>
	<path class="st1" d="M20.6,13.2c0.7,1.9,1.8,3.9,3.3,5.6c1.9,2.1,4.2,3.7,7,4.7c-2,0.8-4.2,2-6,3.7c-1.9,1.8-3.3,3.9-4.2,6.5
		c-0.9-2.5-2.4-4.7-4.2-6.5c-1.9-1.8-4-3-6-3.7c2.8-1,5.1-2.6,7-4.7C18.8,17.1,19.8,15.2,20.6,13.2 M20.5,1C20.5,1,20.5,1,20.5,1
		C20.2,1,20,1.3,20,1.6c0,0,0,0.3,0.1,0.6c-0.1,0.8-0.1,2.2,0,3.9c-0.2,3.3-1.2,7.9-4.3,11.5c-3,3.5-7.6,5.3-13.5,5.5
		c-0.1,0-0.2,0-0.2,0c-0.3,0-0.5,0-0.5,0C1.2,23,1,23.2,1,23.5C1,23.8,1.2,24,1.5,24c0.2,0,0.4,0,0.6,0c1.9,0,8.3,0.5,12.9,4.8
		c3.3,3.2,5,7.8,5,13.7c0,0.3,0.2,0.5,0.5,0.5c0,0,0,0,0.1,0c0,0,0,0,0.1,0c0.3,0,0.5-0.2,0.5-0.5c0-5.9,1.7-10.5,5-13.7
		C30.7,24.5,37.1,24,39,24c0.2,0,0.4,0,0.6,0c0.3,0,0.5-0.2,0.5-0.5c0-0.3-0.2-0.5-0.5-0.5c0,0-0.2,0-0.5,0c-0.1,0-0.2,0-0.2,0
		c-5.9-0.1-10.5-2-13.5-5.5c-3.1-3.5-4-8.1-4.3-11.5c0.1-1.7,0.1-3,0-3.8c0-0.4,0.1-0.6,0.1-0.7C21.2,1.3,21,1,20.7,1c0,0,0,0,0,0
		c0,0-0.1,0-0.1,0C20.6,1,20.5,1,20.5,1L20.5,1z"/>
</g>
</svg>
