<?xml version="1.0" encoding="utf-8"?>
<!-- Generator: Adobe Illustrator 21.1.0, SVG Export Plug-In . SVG Version: 6.00 Build 0)  -->
<svg version="1.1" id="圖層_1" xmlns="http://www.w3.org/2000/svg" xmlns:xlink="http://www.w3.org/1999/xlink" x="0px" y="0px"
	 viewBox="0 0 202.8 300" style="enable-background:new 0 0 202.8 300;" xml:space="preserve">
<style type="text/css">
	.st0{fill:#DC5453;}
	.st1{fill:#8EBFBF;}
</style>
<title>cav-postCard</title>
<polygon class="st0" points="177,261.8 192.9,261.8 190.4,266 174.5,266 "/>
<polygon class="st1" points="149.1,261.8 165,261.8 162.5,266 146.6,266 "/>
<polygon class="st0" points="121.2,261.8 137.1,261.8 134.6,266 118.7,266 "/>
<polygon class="st1" points="93.2,261.8 109.2,261.8 106.7,266 90.8,266 "/>
<polygon class="st0" points="65.3,261.8 81.2,261.8 78.8,266 62.8,266 "/>
<polygon class="st1" points="37.4,261.8 53.3,261.8 50.8,266 34.9,266 "/>
<polygon class="st0" points="9.5,261.8 25.4,261.8 22.9,266 7,266 "/>
<polygon class="st0" points="177,33 192.9,33 190.4,37.2 174.5,37.2 "/>
<polygon class="st1" points="149.1,33 165,33 162.5,37.2 146.6,37.2 "/>
<polygon class="st0" points="121.2,33 137.1,33 134.6,37.2 118.7,37.2 "/>
<polygon class="st1" points="93.2,33 109.2,33 106.7,37.2 90.8,37.2 "/>
<polygon class="st0" points="65.3,33 81.2,33 78.8,37.2 62.8,37.2 "/>
<polygon class="st1" points="37.4,33 53.3,33 50.8,37.2 34.9,37.2 "/>
<polygon class="st0" points="9.5,33 25.4,33 22.9,37.2 7,37.2 "/>
<polygon class="st1" points="5.4,241.4 5.4,253.7 0,251.8 0,239.4 "/>
<polygon class="st0" points="5.4,219.7 5.4,232.1 0,230.1 0,217.8 "/>
<polygon class="st1" points="5.4,198 5.4,210.4 0,208.4 0,196.1 "/>
<polygon class="st0" points="5.4,176.3 5.4,188.7 0,186.8 0,174.4 "/>
<polygon class="st1" points="5.4,154.6 5.4,167 0,165.1 0,152.7 "/>
<polygon class="st0" points="5.4,133 5.4,145.3 0,143.4 0,131 "/>
<polygon class="st1" points="5.4,112 5.4,124.3 0,122.4 0,110 "/>
<polygon class="st0" points="5.4,89.6 5.4,102 0,100 0,87.7 "/>
<polygon class="st0" points="5.4,44.6 5.4,56.9 0,55 0,42.6 "/>
<polygon class="st1" points="5.4,67.9 5.4,80.2 0,78.4 0,65.9 "/>
<polygon class="st1" points="202.8,241.4 202.8,253.7 197.4,251.8 197.4,239.4 "/>
<polygon class="st0" points="202.8,219.7 202.8,232.1 197.4,230.1 197.4,217.8 "/>
<polygon class="st1" points="202.8,198 202.8,210.4 197.4,208.4 197.4,196.1 "/>
<polygon class="st0" points="202.8,176.3 202.8,188.7 197.4,186.8 197.4,174.4 "/>
<polygon class="st1" points="202.8,154.6 202.8,167 197.4,165.1 197.4,152.7 "/>
<polygon class="st0" points="202.8,133 202.8,145.3 197.4,143.4 197.4,131 "/>
<polygon class="st1" points="202.8,111.3 202.8,123.6 197.4,121.7 197.4,109.3 "/>
<polygon class="st0" points="202.8,89.6 202.8,102 197.4,100 197.4,87.7 "/>
<polygon class="st0" points="202.8,44.6 202.8,56.9 197.4,55 197.4,42.6 "/>
<polygon class="st1" points="202.8,67.9 202.8,80.2 197.4,78.4 197.4,65.9 "/>
</svg>
