<?xml version="1.0" encoding="utf-8"?>
<!-- Generator: Adobe Illustrator 21.1.0, SVG Export Plug-In . SVG Version: 6.00 Build 0)  -->
<svg version="1.1" id="圖層_1" xmlns="http://www.w3.org/2000/svg" xmlns:xlink="http://www.w3.org/1999/xlink" x="0px" y="0px"
	 viewBox="0 0 202.8 216.2" style="enable-background:new 0 0 202.8 216.2;" xml:space="preserve">
<style type="text/css">
	.st0{fill:#DC5453;}
	.st1{fill:#8EBFBF;}
</style>
<title>cav-postCard</title>
<polygon class="st0" points="177,210.8 192.9,210.8 190.4,216.2 174.5,216.2 "/>
<polygon class="st1" points="149.1,210.8 165,210.8 162.5,216.2 146.6,216.2 "/>
<polygon class="st0" points="121.2,210.8 137.1,210.8 134.6,216.2 118.7,216.2 "/>
<polygon class="st1" points="93.2,210.8 109.2,210.8 106.7,216.2 90.8,216.2 "/>
<polygon class="st0" points="65.3,210.8 81.2,210.8 78.8,216.2 62.8,216.2 "/>
<polygon class="st1" points="37.4,210.8 53.3,210.8 50.8,216.2 34.9,216.2 "/>
<polygon class="st0" points="9.5,210.8 25.4,210.8 22.9,216.2 7,216.2 "/>
<polygon class="st0" points="177,0 192.9,0 190.4,5.4 174.5,5.4 "/>
<polygon class="st1" points="149.1,0 165,0 162.5,5.4 146.6,5.4 "/>
<polygon class="st0" points="121.2,0 137.1,0 134.6,5.4 118.7,5.4 "/>
<polygon class="st1" points="93.2,0 109.2,0 106.7,5.4 90.8,5.4 "/>
<polygon class="st0" points="65.3,0 81.2,0 78.8,5.4 62.8,5.4 "/>
<polygon class="st1" points="37.4,0 53.3,0 50.8,5.4 34.9,5.4 "/>
<polygon class="st0" points="9.5,0 25.4,0 22.9,5.4 7,5.4 "/>
<polygon class="st0" points="5.4,184.5 5.4,200.4 0,197.9 0,182 "/>
<polygon class="st1" points="5.4,156.6 5.4,172.5 0,170.1 0,154.1 "/>
<polygon class="st0" points="5.4,128.7 5.4,144.6 0,142.1 0,126.2 "/>
<polygon class="st1" points="5.4,101.7 5.4,117.6 0,115.1 0,99.2 "/>
<polygon class="st0" points="5.4,72.9 5.4,88.8 0,86.3 0,70.4 "/>
<polygon class="st0" points="5.4,14.9 5.4,30.8 0,28.3 0,12.4 "/>
<polygon class="st1" points="5.4,44.9 5.4,60.8 0,58.4 0,42.4 "/>
<polygon class="st0" points="202.8,184.5 202.8,200.4 197.4,197.9 197.4,182 "/>
<polygon class="st1" points="202.8,156.6 202.8,172.5 197.4,170.1 197.4,154.1 "/>
<polygon class="st0" points="202.8,128.7 202.8,144.6 197.4,142.1 197.4,126.2 "/>
<polygon class="st1" points="202.8,100.8 202.8,116.7 197.4,114.2 197.4,98.3 "/>
<polygon class="st0" points="202.8,72.9 202.8,88.8 197.4,86.3 197.4,70.4 "/>
<polygon class="st0" points="202.8,14.9 202.8,30.8 197.4,28.3 197.4,12.4 "/>
<polygon class="st1" points="202.8,44.9 202.8,60.8 197.4,58.4 197.4,42.4 "/>
</svg>
