<?xml version="1.0" encoding="utf-8"?>
<!-- Generator: Adobe Illustrator 16.0.0, SVG Export Plug-In . SVG Version: 6.00 Build 0)  -->
<!DOCTYPE svg PUBLIC "-//W3C//DTD SVG 1.1//EN" "http://www.w3.org/Graphics/SVG/1.1/DTD/svg11.dtd">
<svg version="1.1" id="圖層_1" xmlns="http://www.w3.org/2000/svg" xmlns:xlink="http://www.w3.org/1999/xlink" x="0px" y="0px"
	 width="892px" height="651px" viewBox="0 0 892 651" enable-background="new 0 0 892 651" xml:space="preserve">
<g>
	<polygon fill="#E68787" stroke="#000000" stroke-width="5" stroke-miterlimit="10" points="596.896,486.703 592.679,120.395 
		582.179,108.463 582.958,96.005 589.503,86.853 607.546,87.054 673.542,87.054 682.542,99.372 682.542,111.046 676.542,123.362 
		676.542,146.841 680.567,486.703 	"/>
	
		<rect x="593.896" y="127.359" fill="#FFFFFF" stroke="#000000" stroke-width="5" stroke-miterlimit="10" width="82.674" height="40.513"/>
	
		<rect x="594.767" y="213.641" fill="#FFFFFF" stroke="#000000" stroke-width="5" stroke-miterlimit="10" width="82.672" height="40.513"/>
	
		<rect x="594.767" y="297.027" fill="#FFFFFF" stroke="#000000" stroke-width="5" stroke-miterlimit="10" width="82.672" height="40.513"/>
	
		<rect x="596.952" y="387.693" fill="#FFFFFF" stroke="#000000" stroke-width="5" stroke-miterlimit="10" width="81.729" height="40.514"/>
	<polygon fill="#E68787" stroke="#000000" stroke-width="5" stroke-miterlimit="10" points="702.595,501.63 699.062,194.742 
		690.265,184.746 690.917,174.309 696.401,166.641 711.517,166.81 766.808,166.81 774.349,177.129 774.349,186.909 769.321,197.228 
		769.321,216.898 772.694,501.63 	"/>
	
		<rect x="700.081" y="200.577" fill="#FFFFFF" stroke="#000000" stroke-width="5" stroke-miterlimit="10" width="69.262" height="33.941"/>
	
		<rect x="700.81" y="272.862" fill="#FFFFFF" stroke="#000000" stroke-width="5" stroke-miterlimit="10" width="69.262" height="33.941"/>
	
		<rect x="700.81" y="342.723" fill="#FFFFFF" stroke="#000000" stroke-width="5" stroke-miterlimit="10" width="69.262" height="33.941"/>
	
		<rect x="702.642" y="418.682" fill="#FFFFFF" stroke="#000000" stroke-width="5" stroke-miterlimit="10" width="68.471" height="33.941"/>
	<path fill="#C0BFBF" stroke="#000000" stroke-width="5" stroke-miterlimit="10" d="M305.126,209.217c0,0-133.021-11.005-175.491,0
		c-5.134,1.33-13.5,7.5-15,15c-1.5,7.499,4.5,23.998,10.5,28.498c5.999,4.5,7.499,17.999,5.999,28.499
		c-1.499,10.499-7.499,47.997-7.499,47.997l-9.233,40.498l-8.766,28.499l-12,32.998l-11.999,28.498l-14.999,26.999h305.986
		l-21-29.998l-15-44.248l-7.498-39.748l-10.5-34.498l-9-43.498l-1.5-25.499c0,0,0-14.999,6-20.999c6-5.999,10.5-11.999,7.5-22.499
		C318.626,215.217,305.126,209.217,305.126,209.217"/>
	<path fill="#9E9E9E" d="M302.733,210.709l-74.832-2.969l-0.516,41.814l-2.297,235.161h142.35l-20.131-29.621L332.929,411.4
		l-7.189-39.25l-10.064-34.064l-8.627-42.954l-1.438-25.178c0,0,0-14.811,5.751-20.736c5.752-5.925,10.064-11.849,7.189-22.217
		C315.675,216.633,302.733,210.709,302.733,210.709"/>
	<path fill="#C0BFBF" stroke="#000000" stroke-width="5" stroke-miterlimit="10" d="M415.932,262.425
		c-16.194-7.351-55.035-7.188-71.304,0c-3.131,1.383-5.485,6.062-6.094,12.124c-0.611,6.062,1.828,19.398,4.266,23.035
		c2.438,3.637,3.047,14.549,2.438,23.035s-3.048,38.797-3.048,38.797l-3.751,32.734l-3.563,23.035l-4.875,26.672l-4.875,23.035
		l-6.094,21.824h124.323l-8.53-24.248l-6.096-35.766l-3.047-32.128l-4.266-27.886l-3.657-35.158l-0.608-20.61
		c0,0,0-12.124,2.436-16.974c2.439-4.85,4.267-9.699,3.049-18.186C421.417,267.275,419.357,263.98,415.932,262.425"/>
	<path fill="#9E9E9E" d="M406.542,261.514c-7.138-2.034-23.584-3.026-23.584-3.026l-0.207,33.957l-0.934,192.63h57.838
		l-8.179-24.265l-5.843-35.791l-2.92-32.15l-4.09-27.904l-3.506-35.184l-0.584-20.625c0,0,0-12.133,2.338-16.986
		c2.336-4.853,4.088-9.706,2.92-18.198C418.624,265.479,409.784,262.438,406.542,261.514"/>
	<rect x="695.218" y="436.454" fill="#040000" width="110" height="54"/>
	<rect x="709.718" y="443.792" fill="#B1DBEF" width="17" height="17"/>
	<rect x="709.718" y="465.454" fill="#B1DBEF" width="17" height="17"/>
	<rect x="740.72" y="443.792" fill="#B1DBEF" width="17" height="17"/>
	<rect x="772.22" y="443.792" fill="#B1DBEF" width="17" height="17"/>
	<rect x="772.22" y="465.454" fill="#B1DBEF" width="17" height="17"/>
	<rect x="740.47" y="465.454" fill="#B1DBEF" width="17" height="17"/>
	<rect x="442.62" y="338.21" fill="#040000" width="203.99" height="148.493"/>
	<rect x="467.87" y="382.583" fill="#B4E0F5" width="23.998" height="23.999"/>
	
		<rect x="467.87" y="382.583" fill="none" stroke="#000000" stroke-width="5" stroke-miterlimit="10" width="23.998" height="23.999"/>
	<rect x="467.87" y="348.709" fill="#B4E0F5" width="23.998" height="23.999"/>
	
		<rect x="467.87" y="348.709" fill="none" stroke="#000000" stroke-width="5" stroke-miterlimit="10" width="23.998" height="23.999"/>
	<rect x="467.87" y="416.457" fill="#B4E0F5" width="23.998" height="23.999"/>
	
		<rect x="467.87" y="416.457" fill="none" stroke="#000000" stroke-width="5" stroke-miterlimit="10" width="23.998" height="23.999"/>
	<rect x="467.87" y="451.455" fill="#B4E0F5" width="23.998" height="23.999"/>
	
		<rect x="467.87" y="451.455" fill="none" stroke="#000000" stroke-width="5" stroke-miterlimit="10" width="23.998" height="23.999"/>
	<rect x="513.614" y="382.958" fill="#B4E0F5" width="23.998" height="23.999"/>
	
		<rect x="513.614" y="382.958" fill="none" stroke="#000000" stroke-width="5" stroke-miterlimit="10" width="23.998" height="23.999"/>
	<rect x="513.614" y="349.084" fill="#B4E0F5" width="23.998" height="23.999"/>
	
		<rect x="513.614" y="349.084" fill="none" stroke="#000000" stroke-width="5" stroke-miterlimit="10" width="23.998" height="23.999"/>
	<rect x="513.614" y="416.832" fill="#B4E0F5" width="23.998" height="23.999"/>
	
		<rect x="513.614" y="416.832" fill="none" stroke="#000000" stroke-width="5" stroke-miterlimit="10" width="23.998" height="23.999"/>
	<rect x="513.614" y="451.83" fill="#B4E0F5" width="23.998" height="23.999"/>
	
		<rect x="513.614" y="451.83" fill="none" stroke="#000000" stroke-width="5" stroke-miterlimit="10" width="23.998" height="23.999"/>
	<rect x="557.272" y="382.958" fill="#B4E0F5" width="23.998" height="23.999"/>
	
		<rect x="557.272" y="382.958" fill="none" stroke="#000000" stroke-width="5" stroke-miterlimit="10" width="23.998" height="23.999"/>
	<rect x="557.272" y="349.084" fill="#B4E0F5" width="23.998" height="23.999"/>
	
		<rect x="557.272" y="349.084" fill="none" stroke="#000000" stroke-width="5" stroke-miterlimit="10" width="23.998" height="23.999"/>
	<rect x="557.272" y="416.832" fill="#B4E0F5" width="23.998" height="23.999"/>
	
		<rect x="557.272" y="416.832" fill="none" stroke="#000000" stroke-width="5" stroke-miterlimit="10" width="23.998" height="23.999"/>
	<rect x="557.272" y="451.83" fill="#B4E0F5" width="23.998" height="23.999"/>
	
		<rect x="557.272" y="451.83" fill="none" stroke="#000000" stroke-width="5" stroke-miterlimit="10" width="23.998" height="23.999"/>
	<rect x="600.362" y="382.958" fill="#B4E0F5" width="23.998" height="23.999"/>
	
		<rect x="600.362" y="382.958" fill="none" stroke="#000000" stroke-width="5" stroke-miterlimit="10" width="23.998" height="23.999"/>
	<rect x="600.362" y="349.084" fill="#B4E0F5" width="23.998" height="23.999"/>
	
		<rect x="600.362" y="349.084" fill="none" stroke="#000000" stroke-width="5" stroke-miterlimit="10" width="23.998" height="23.999"/>
	<rect x="600.362" y="416.832" fill="#B4E0F5" width="23.998" height="23.999"/>
	
		<rect x="600.362" y="416.832" fill="none" stroke="#000000" stroke-width="5" stroke-miterlimit="10" width="23.998" height="23.999"/>
	<rect x="600.362" y="451.83" fill="#B4E0F5" width="23.998" height="23.999"/>
	
		<rect x="600.362" y="451.83" fill="none" stroke="#000000" stroke-width="5" stroke-miterlimit="10" width="23.998" height="23.999"/>
	<polygon fill="#7FA9D0" stroke="#000000" stroke-width="5" stroke-miterlimit="10" points="5.3,486.703 5.3,543.7 5.3,603.697 
		5.3,645.695 886.62,645.695 886.62,486.703 27.721,486.703 	"/>
	
		<rect x="6.45" y="580.2" fill="#406A90" stroke="#000000" stroke-width="5" stroke-miterlimit="10" width="879.119" height="64.376"/>
	<path fill="#FFFFFF" stroke="#000000" stroke-width="5" stroke-miterlimit="10" d="M266.196,54.6
		c-22.15,0-40.107,17.957-40.107,40.107c0,0.154,0.009,0.305,0.011,0.458c-12.683,2.331-22.296,13.435-22.296,26.792
		c0,5.053,1.38,9.78,3.776,13.836c-6.421,1.101-11.311,6.681-11.311,13.414c0,7.525,6.1,13.625,13.625,13.625
		c7.525,0,13.625-6.1,13.625-13.625c0-0.364-0.026-0.721-0.054-1.079c2.41,0.698,4.954,1.079,7.588,1.079
		c10.947,0,20.381-6.458,24.715-15.77c3.326,0.894,6.82,1.378,10.428,1.378c22.15,0,40.107-17.957,40.107-40.108
		C306.304,72.557,288.347,54.6,266.196,54.6"/>
	<path fill="#FFFFFF" stroke="#000000" stroke-width="5" stroke-miterlimit="10" d="M539.261,5.215
		c-17.563,0-32.219,12.45-35.625,29.006c-9.025-5.996-19.852-9.497-31.498-9.497c-31.48,0-57,25.52-57,57
		c0,0.266,0.016,0.528,0.02,0.793c-20.966,3.945-36.832,22.34-36.832,44.451c0,9.588,2.99,18.472,8.077,25.789
		c-13.261,3.166-23.123,15.085-23.123,29.315c0,16.648,13.496,30.145,30.146,30.145c16.648,0,30.146-13.497,30.146-30.145
		c0-3.47-0.595-6.799-1.673-9.901c0.556,0.02,1.111,0.043,1.673,0.043c20.999,0,38.653-14.309,43.755-33.707
		c1.588,0.133,3.189,0.217,4.813,0.217c31.48,0,57-25.52,57-57c0-1.779-0.094-3.536-0.252-5.273c3.289,0.977,6.77,1.51,10.375,1.51
		c20.09,0,36.375-16.285,36.375-36.373C575.636,21.5,559.351,5.215,539.261,5.215"/>
	<path fill="#FFFFFF" stroke="#000000" stroke-width="5" stroke-miterlimit="10" d="M666.179,5.215
		c-13.422,0-24.303,10.881-24.303,24.304c0,3.223,0.633,6.297,1.771,9.112c-0.582-0.074-1.17-0.125-1.771-0.125
		c-7.732,0-14,6.268-14,14c0,7.732,6.268,14,14,14s14-6.268,14-14c0-0.336-0.027-0.666-0.051-0.997
		c3.143,1.482,6.65,2.314,10.354,2.314c13.424,0,24.305-10.881,24.305-24.304S679.603,5.215,666.179,5.215"/>
	<path fill="#FFFFFF" stroke="#000000" stroke-width="5" stroke-miterlimit="10" d="M783.552,67.4
		c-15.801,0-28.611,12.81-28.611,28.611c0,3.794,0.746,7.413,2.086,10.726c-0.684-0.087-1.377-0.147-2.086-0.147
		c-9.102,0-16.48,7.379-16.48,16.481c0,2.146,0.422,4.19,1.17,6.071c-0.385-0.043-0.773-0.069-1.17-0.069
		c-5.787,0-10.479,4.692-10.479,10.479c0,5.788,4.691,10.48,10.479,10.48s10.479-4.692,10.479-10.48
		c0-0.395-0.025-0.784-0.068-1.169c1.881,0.746,3.924,1.169,6.07,1.169c9.104,0,16.48-7.379,16.48-16.481
		c0-0.396-0.031-0.784-0.059-1.173c3.699,1.744,7.828,2.724,12.189,2.724c15.801,0,28.611-12.81,28.611-28.611
		C812.163,80.21,799.353,67.4,783.552,67.4"/>
	<path fill="#9E9E9E" stroke="#000000" stroke-width="5" stroke-miterlimit="10" d="M474.042,526.798h-5.451
		c-0.412-1.327-0.949-2.597-1.545-3.833l5.285-5.283c1.115-1.115,1.115-2.94,0-4.056l-8.178-8.176c-1.115-1.115-2.939-1.115-4.055,0
		l-4.961,4.961c-1.242-0.677-2.557-1.233-3.904-1.72v-6.909c0-1.577-1.291-2.867-2.868-2.867h-11.562
		c-1.578,0-2.868,1.29-2.868,2.867v6.313c-1.872,0.535-3.667,1.248-5.358,2.139l-3.893-3.893c-1.081-1.08-2.85-1.08-3.932,0
		l-7.928,7.928c-1.082,1.082-1.082,2.852,0,3.933l3.9,3.899c-0.785,1.494-1.453,3.06-1.961,4.696h-5.495
		c-1.53,0-2.781,1.251-2.781,2.78v11.212c0,1.529,1.251,2.78,2.781,2.78h5.502c0.552,1.769,1.272,3.462,2.146,5.063l-4.056,4.055
		c-1.114,1.115-1.114,2.939,0,4.055l8.177,8.176c1.114,1.115,2.94,1.115,4.055,0l4.377-4.377c1.429,0.689,2.916,1.266,4.466,1.708
		v6.337c0,1.577,1.29,2.867,2.868,2.867h11.562c1.577,0,2.868-1.29,2.868-2.867v-6.931c1.211-0.437,2.389-0.938,3.516-1.53
		l3.877,3.879c1.082,1.081,2.852,1.081,3.934,0l7.926-7.928c1.082-1.082,1.082-2.852,0-3.932l-3.869-3.871
		c0.787-1.496,1.457-3.063,1.969-4.703h5.457c1.529,0,2.781-1.251,2.781-2.78v-11.212
		C476.823,528.049,475.571,526.798,474.042,526.798"/>
	<path fill="#7CA2C7" stroke="#040000" stroke-width="5" stroke-miterlimit="10" d="M453.298,535.184
		c0,6.43-5.212,11.643-11.643,11.643c-6.43,0-11.643-5.213-11.643-11.643s5.213-11.642,11.643-11.642
		C448.086,523.542,453.298,528.754,453.298,535.184"/>
</g>
</svg>
