<?xml version="1.0" encoding="utf-8"?>
<!-- Generator: Adobe Illustrator 21.1.0, SVG Export Plug-In . SVG Version: 6.00 Build 0)  -->
<svg version="1.1" id="圖層_1" xmlns="http://www.w3.org/2000/svg" xmlns:xlink="http://www.w3.org/1999/xlink" x="0px" y="0px"
	 viewBox="0 0 166 170" style="enable-background:new 0 0 166 170;" xml:space="preserve">
<style type="text/css">
	.st0{fill:#9E9E9E;stroke:#000000;stroke-width:5;stroke-miterlimit:10;}
</style>
<path class="st0" d="M151.8,66.9h-11.6c-0.9-2.8-2-5.5-3.3-8.2l11.3-11.3c2.4-2.4,2.4-6.3,0-8.7l-17.5-17.5c-2.4-2.4-6.3-2.4-8.7,0
	l-10.6,10.6c-2.7-1.4-5.5-2.6-8.3-3.7V13.4c0-3.4-2.8-6.1-6.1-6.1H72.3c-3.4,0-6.1,2.8-6.1,6.1v13.5c-4,1.1-7.8,2.7-11.4,4.6
	l-8.3-8.3c-2.3-2.3-6.1-2.3-8.4,0L21.1,40.1c-2.3,2.3-2.3,6.1,0,8.4l8.3,8.3c-1.7,3.2-3.1,6.5-4.2,10H13.5c-3.3,0-5.9,2.7-5.9,5.9
	v23.9c0,3.3,2.7,5.9,5.9,5.9h11.8c1.2,3.8,2.7,7.4,4.6,10.8l-8.7,8.7c-2.4,2.4-2.4,6.3,0,8.7l17.5,17.5c2.4,2.4,6.3,2.4,8.7,0
	l9.3-9.3c3,1.5,6.2,2.7,9.5,3.6v13.5c0,3.4,2.8,6.1,6.1,6.1H97c3.4,0,6.1-2.8,6.1-6.1v-14.8c2.6-0.9,5.1-2,7.5-3.3l8.3,8.3
	c2.3,2.3,6.1,2.3,8.4,0l16.9-16.9c2.3-2.3,2.3-6.1,0-8.4l-8.3-8.3c1.7-3.2,3.1-6.5,4.2-10h11.7c3.3,0,5.9-2.7,5.9-5.9V72.8
	C157.7,69.5,155.1,66.9,151.8,66.9z M82.6,109.6c-13.7,0-24.9-11.1-24.9-24.9s11.1-24.9,24.9-24.9s24.9,11.1,24.9,24.9
	S96.4,109.6,82.6,109.6z"/>
</svg>
