<?xml version="1.0" encoding="utf-8"?>
<!-- Generator: Adobe Illustrator 21.1.0, SVG Export Plug-In . SVG Version: 6.00 Build 0)  -->
<svg version="1.1" id="圖層_1" xmlns="http://www.w3.org/2000/svg" xmlns:xlink="http://www.w3.org/1999/xlink" x="0px" y="0px"
	 viewBox="0 0 955 649" style="enable-background:new 0 0 955 649;" xml:space="preserve">
<style type="text/css">
	.st0{fill:#FFFFFF;stroke:#040000;stroke-width:5;stroke-miterlimit:10;}
	.st1{fill:none;stroke:#ACDBD7;stroke-width:2;stroke-miterlimit:10;}
	.st2{fill:none;stroke:#040000;stroke-width:5;stroke-miterlimit:10;}
	.st3{fill:#343535;stroke:#040000;stroke-width:5;stroke-miterlimit:10;}
</style>
<g>
	<g>
		<g>
			<path class="st0" d="M3.5,58.5v587.1h949.4V58.5H3.5z"/>
			<rect x="3.5" y="78.7" class="st1" width="949.4" height="26.8"/>
			<rect x="3.5" y="134" class="st1" width="949.4" height="26.8"/>
			<rect x="3.5" y="188.8" class="st1" width="949.4" height="26.8"/>
			<rect x="3.5" y="244.2" class="st1" width="949.4" height="26.8"/>
			<rect x="3.5" y="297.9" class="st1" width="949.4" height="26.8"/>
			<rect x="3.5" y="353.2" class="st1" width="949.4" height="26.8"/>
			<rect x="3.5" y="408" class="st1" width="949.4" height="26.8"/>
			<rect x="3.5" y="463.4" class="st1" width="949.4" height="26.8"/>
			<rect x="3.5" y="518.7" class="st1" width="949.4" height="26.8"/>
			<rect x="3.5" y="574.1" class="st1" width="949.4" height="26.8"/>
			<path class="st2" d="M3.5,58.5v587.1h949.4V58.5H3.5z"/>
		</g>
		<circle class="st0" cx="46.3" cy="101.6" r="14.6"/>
		<circle class="st0" cx="906.4" cy="101.6" r="14.6"/>
	</g>
	<path class="st3" d="M54.7,89.5c0,4.6-3.8,8.4-8.4,8.4l0,0c-4.6,0-8.4-3.8-8.4-8.4V10.7c0-4.6,3.8-8.4,8.4-8.4l0,0
		c4.6,0,8.4,3.8,8.4,8.4V89.5z"/>
	<path class="st3" d="M914.8,89.5c0,4.6-3.8,8.4-8.4,8.4l0,0c-4.6,0-8.4-3.8-8.4-8.4V10.7c0-4.6,3.8-8.4,8.4-8.4l0,0
		c4.6,0,8.4,3.8,8.4,8.4V89.5z"/>
</g>
</svg>
