<?xml version="1.0" encoding="utf-8"?>
<!-- Generator: Adobe Illustrator 21.1.0, SVG Export Plug-In . SVG Version: 6.00 Build 0)  -->
<svg version="1.1" id="圖層_1" xmlns="http://www.w3.org/2000/svg" xmlns:xlink="http://www.w3.org/1999/xlink" x="0px" y="0px"
	 viewBox="0 0 1200 760" style="enable-background:new 0 0 1200 760;" xml:space="preserve">
<style type="text/css">
	.st0{fill:#8BB9B9;stroke:#040000;stroke-width:5;stroke-miterlimit:10;}
	.st1{fill:#FFFFFF;stroke:#040000;stroke-width:5;stroke-miterlimit:10;}
</style>
<path class="st0" d="M1197.2,744.6c0,7.1-5.6,12.9-12.6,12.9H15.7c-7,0-12.6-5.8-12.6-12.9V15.4c0-7.1,5.6-12.9,12.6-12.9h1168.9
	c7,0,12.6,5.8,12.6,12.9V744.6z"/>
<path class="st1" d="M1136.8,684.3c0,6-5.1,10.8-11.4,10.8H68.6c-6.3,0-11.4-4.8-11.4-10.8V75.7c0-5.9,5.1-10.8,11.4-10.8h1056.9
	c6.3,0,11.4,4.8,11.4,10.8V684.3z"/>
</svg>
