<?xml version="1.0" encoding="utf-8"?>
<!-- Generator: Adobe Illustrator 16.0.0, SVG Export Plug-In . SVG Version: 6.00 Build 0)  -->
<!DOCTYPE svg PUBLIC "-//W3C//DTD SVG 1.1//EN" "http://www.w3.org/Graphics/SVG/1.1/DTD/svg11.dtd">
<svg version="1.1" id="圖層_1" xmlns="http://www.w3.org/2000/svg" xmlns:xlink="http://www.w3.org/1999/xlink" x="0px" y="0px"
	 width="938px" height="187px" viewBox="0 0 938 187" enable-background="new 0 0 938 187" xml:space="preserve">
<g>
	<path fill="#406A90" d="M130.585,166.221c0,8.283-27.981,15-62.5,15c-34.518,0-62.5-6.717-62.5-15c0-8.285,27.982-74,62.5-74
		C102.604,92.221,130.585,157.936,130.585,166.221"/>
	<path fill="none" stroke="#000000" stroke-width="5" stroke-miterlimit="10" d="M130.585,166.221c0,8.283-27.981,15-62.5,15
		c-34.518,0-62.5-6.717-62.5-15c0-8.285,27.982-74,62.5-74C102.604,92.221,130.585,157.936,130.585,166.221z"/>
	<path fill="#7FA9D0" d="M130.585,168.221c0-6.793-27.981-12.299-62.5-12.299c-34.518,0-62.5,5.506-62.5,12.299
		c0,6.791,27.982,12.299,62.5,12.299C102.604,180.52,130.585,175.012,130.585,168.221"/>
	<ellipse fill="none" stroke="#000000" stroke-width="5" stroke-miterlimit="10" cx="68.085" cy="168.221" rx="62.5" ry="12.299"/>
	<line fill="none" stroke="#000000" stroke-width="5" stroke-miterlimit="10" x1="68.085" y1="92.221" x2="68.085" y2="7.682"/>
	<path fill="#406A90" d="M295.09,165.223c0,8.285-27.982,15-62.5,15s-62.5-6.715-62.5-15c0-8.283,27.982-74,62.5-74
		S295.09,156.939,295.09,165.223"/>
	<path fill="none" stroke="#000000" stroke-width="5" stroke-miterlimit="10" d="M295.09,165.223c0,8.285-27.982,15-62.5,15
		s-62.5-6.715-62.5-15c0-8.283,27.982-74,62.5-74S295.09,156.939,295.09,165.223z"/>
	<path fill="#7FA9D0" d="M295.09,167.223c0-6.791-27.982-12.297-62.5-12.297s-62.5,5.506-62.5,12.297
		c0,6.793,27.982,12.299,62.5,12.299S295.09,174.016,295.09,167.223"/>
	<ellipse fill="none" stroke="#000000" stroke-width="5" stroke-miterlimit="10" cx="232.59" cy="167.223" rx="62.5" ry="12.297"/>
	<line fill="none" stroke="#000000" stroke-width="5" stroke-miterlimit="10" x1="232.59" y1="91.223" x2="232.59" y2="6.686"/>
	<path fill="#406A90" d="M454.156,163.99c0,8.283-27.982,15-62.5,15c-34.52,0-62.5-6.717-62.5-15c0-8.285,27.98-74,62.5-74
		C426.174,89.99,454.156,155.705,454.156,163.99"/>
	<path fill="none" stroke="#000000" stroke-width="5" stroke-miterlimit="10" d="M454.156,163.99c0,8.283-27.982,15-62.5,15
		c-34.52,0-62.5-6.717-62.5-15c0-8.285,27.98-74,62.5-74C426.174,89.99,454.156,155.705,454.156,163.99z"/>
	<path fill="#7FA9D0" d="M454.156,165.99c0-6.793-27.982-12.299-62.5-12.299c-34.52,0-62.5,5.506-62.5,12.299
		c0,6.791,27.98,12.297,62.5,12.297C426.174,178.287,454.156,172.781,454.156,165.99"/>
	<ellipse fill="none" stroke="#000000" stroke-width="5" stroke-miterlimit="10" cx="391.656" cy="165.99" rx="62.5" ry="12.299"/>
	<line fill="none" stroke="#000000" stroke-width="5" stroke-miterlimit="10" x1="391.656" y1="89.99" x2="391.656" y2="5.451"/>
	<path fill="#406A90" d="M609.248,165.105c0,8.283-27.982,15-62.5,15s-62.5-6.717-62.5-15c0-8.285,27.982-74,62.5-74
		S609.248,156.82,609.248,165.105"/>
	<path fill="none" stroke="#000000" stroke-width="5" stroke-miterlimit="10" d="M609.248,165.105c0,8.283-27.982,15-62.5,15
		s-62.5-6.717-62.5-15c0-8.285,27.982-74,62.5-74S609.248,156.82,609.248,165.105z"/>
	<path fill="#7FA9D0" d="M609.248,167.105c0-6.793-27.982-12.299-62.5-12.299s-62.5,5.506-62.5,12.299
		c0,6.791,27.982,12.297,62.5,12.297S609.248,173.896,609.248,167.105"/>
	<ellipse fill="none" stroke="#000000" stroke-width="5" stroke-miterlimit="10" cx="546.748" cy="167.105" rx="62.5" ry="12.299"/>
	<line fill="none" stroke="#000000" stroke-width="5" stroke-miterlimit="10" x1="546.748" y1="91.105" x2="546.748" y2="6.566"/>
	<path fill="#406A90" d="M773.752,164.107c0,8.285-27.98,15-62.5,15c-34.518,0-62.5-6.715-62.5-15c0-8.283,27.982-74,62.5-74
		C745.771,90.107,773.752,155.824,773.752,164.107"/>
	<path fill="none" stroke="#000000" stroke-width="5" stroke-miterlimit="10" d="M773.752,164.107c0,8.285-27.98,15-62.5,15
		c-34.518,0-62.5-6.715-62.5-15c0-8.283,27.982-74,62.5-74C745.771,90.107,773.752,155.824,773.752,164.107z"/>
	<path fill="#7FA9D0" d="M773.752,166.107c0-6.791-27.98-12.297-62.5-12.297c-34.518,0-62.5,5.506-62.5,12.297
		c0,6.793,27.982,12.299,62.5,12.299C745.771,178.406,773.752,172.9,773.752,166.107"/>
	<ellipse fill="none" stroke="#000000" stroke-width="5" stroke-miterlimit="10" cx="711.252" cy="166.107" rx="62.5" ry="12.297"/>
	<line fill="none" stroke="#000000" stroke-width="5" stroke-miterlimit="10" x1="711.252" y1="90.107" x2="711.252" y2="5.57"/>
	<path fill="#406A90" d="M932.818,162.875c0,8.283-27.982,15-62.5,15s-62.5-6.717-62.5-15c0-8.285,27.982-74,62.5-74
		S932.818,154.59,932.818,162.875"/>
	<path fill="none" stroke="#000000" stroke-width="5" stroke-miterlimit="10" d="M932.818,162.875c0,8.283-27.982,15-62.5,15
		s-62.5-6.717-62.5-15c0-8.285,27.982-74,62.5-74S932.818,154.59,932.818,162.875z"/>
	<path fill="#7FA9D0" d="M932.818,164.875c0-6.793-27.982-12.299-62.5-12.299s-62.5,5.506-62.5,12.299
		c0,6.791,27.982,12.297,62.5,12.297S932.818,171.666,932.818,164.875"/>
	<ellipse fill="none" stroke="#000000" stroke-width="5" stroke-miterlimit="10" cx="870.318" cy="164.875" rx="62.5" ry="12.299"/>
	<line fill="none" stroke="#000000" stroke-width="5" stroke-miterlimit="10" x1="870.318" y1="88.875" x2="870.318" y2="4.336"/>
</g>
</svg>
