<?xml version="1.0" encoding="utf-8"?>
<!-- Generator: Adobe Illustrator 16.0.0, SVG Export Plug-In . SVG Version: 6.00 Build 0)  -->
<!DOCTYPE svg PUBLIC "-//W3C//DTD SVG 1.1//EN" "http://www.w3.org/Graphics/SVG/1.1/DTD/svg11.dtd">
<svg version="1.1" id="圖層_1" xmlns="http://www.w3.org/2000/svg" xmlns:xlink="http://www.w3.org/1999/xlink" x="0px" y="0px"
	 width="427px" height="607px" viewBox="0 0 427 607" enable-background="new 0 0 427 607" xml:space="preserve">
<g>
	<path fill="#3D989B" stroke="#000000" stroke-width="5" stroke-miterlimit="10" d="M170.804,211.715
		c0-37.453,16.398-71.063,42.377-94.102h166.719c25.98,23.039,42.379,56.648,42.379,94.102c0,37.572-16.504,71.275-42.633,94.316
		H213.435C187.306,282.991,170.804,249.288,170.804,211.715"/>
	
		<rect x="16.056" y="338.357" fill="#41A6A9" stroke="#000000" stroke-width="5" stroke-miterlimit="10" width="391.182" height="263.68"/>
	
		<rect x="36.116" y="354.221" fill="#F0F2ED" stroke="#000000" stroke-width="5" stroke-miterlimit="10" width="148.066" height="60.18"/>
	
		<rect x="253.204" y="354.936" fill="#EBD76C" stroke="#000000" stroke-width="5" stroke-miterlimit="10" width="22.924" height="22.926"/>
	
		<rect x="214.515" y="354.936" fill="#EBD76C" stroke="#000000" stroke-width="5" stroke-miterlimit="10" width="22.926" height="22.926"/>
	
		<rect x="253.204" y="392.193" fill="#EBD76C" stroke="#000000" stroke-width="5" stroke-miterlimit="10" width="22.924" height="22.922"/>
	
		<rect x="214.515" y="392.193" fill="#EBD76C" stroke="#000000" stroke-width="5" stroke-miterlimit="10" width="22.926" height="22.922"/>
	
		<rect x="367.12" y="354.219" fill="#F0F2ED" stroke="#000000" stroke-width="5" stroke-miterlimit="10" width="21.49" height="60.896"/>
	
		<rect x="330.22" y="354.219" fill="#F0F2ED" stroke="#000000" stroke-width="5" stroke-miterlimit="10" width="21.492" height="60.896"/>
	
		<rect x="293.323" y="354.219" fill="#F0F2ED" stroke="#000000" stroke-width="5" stroke-miterlimit="10" width="21.494" height="60.896"/>
	
		<rect x="205.915" y="316.16" fill="#58595B" stroke="#000000" stroke-width="5" stroke-miterlimit="10" width="182.695" height="21.342"/>
	<polygon fill="#41A6A9" stroke="#000000" stroke-width="5" stroke-miterlimit="10" points="328.2,292.446 376.099,243.44 
		266.726,131.198 216.983,178.696 	"/>
	<path fill="#41A6A9" stroke="#000000" stroke-width="5" stroke-miterlimit="10" d="M207.579,154.95
		c0,18.93,15.344,34.277,34.277,34.277c18.924,0,34.271-15.348,34.271-34.277c0-18.932-15.348-34.279-34.271-34.279
		C222.923,120.67,207.579,136.018,207.579,154.95"/>
	<path fill="#6D6E71" stroke="#000000" stroke-width="5" stroke-miterlimit="10" d="M224.343,154.95
		c0,9.672,7.842,17.506,17.514,17.506c9.666,0,17.51-7.834,17.51-17.506c0-9.674-7.844-17.51-17.51-17.51
		C232.185,137.44,224.343,145.276,224.343,154.95"/>
	<path fill="#EEEFEF" stroke="#000000" stroke-width="5" stroke-miterlimit="10" d="M233.284,154.95
		c0,4.732,3.836,8.568,8.572,8.568c4.73,0,8.564-3.836,8.564-8.568s-3.834-8.568-8.564-8.568
		C237.12,146.381,233.284,150.217,233.284,154.95"/>
	<path fill="#41A6A9" stroke="#000000" stroke-width="5" stroke-miterlimit="10" d="M317.437,267.518
		c0,18.93,15.348,34.273,34.275,34.273c18.934,0,34.277-15.344,34.277-34.273c0-18.936-15.344-34.275-34.277-34.275
		C332.784,233.243,317.437,248.583,317.437,267.518"/>
	<path fill="#6D6E71" stroke="#000000" stroke-width="5" stroke-miterlimit="10" d="M334.202,267.518
		c0,9.668,7.84,17.506,17.51,17.506c9.674,0,17.51-7.838,17.51-17.506c0-9.676-7.836-17.512-17.51-17.512
		C342.042,250.006,334.202,257.842,334.202,267.518"/>
	<path fill="#EEEFEF" stroke="#000000" stroke-width="5" stroke-miterlimit="10" d="M343.146,267.518
		c0,4.732,3.836,8.564,8.566,8.564c4.736,0,8.572-3.832,8.572-8.564c0-4.736-3.836-8.57-8.572-8.57
		C346.981,258.948,343.146,262.782,343.146,267.518"/>
	
		<rect x="214.515" y="304.07" fill="#41A6A9" stroke="#000000" stroke-width="5" stroke-miterlimit="10" width="163.35" height="12.09"/>
	
		<rect x="213.181" y="44.237" fill="#6D6E71" stroke="#000000" stroke-width="5" stroke-miterlimit="10" width="164.684" height="73.377"/>
	
		<rect x="203.767" y="55.221" fill="#58595B" stroke="#000000" stroke-width="5" stroke-miterlimit="10" width="183.889" height="10.504"/>
	
		<rect x="203.579" y="73.286" fill="#58595B" stroke="#000000" stroke-width="5" stroke-miterlimit="10" width="183.891" height="10.506"/>
	
		<rect x="203.39" y="91.352" fill="#58595B" stroke="#000000" stroke-width="5" stroke-miterlimit="10" width="183.889" height="10.504"/>
	
		<rect x="197.556" y="5.545" fill="#3D989B" stroke="#000000" stroke-width="5" stroke-miterlimit="10" width="195.83" height="38.691"/>
	
		<rect x="5.179" y="333.357" fill="#41A6A9" stroke="#000000" stroke-width="5" stroke-miterlimit="10" width="21.754" height="164.486"/>
</g>
</svg>
