<?xml version="1.0" encoding="utf-8"?>
<!-- Generator: Adobe Illustrator 16.0.0, SVG Export Plug-In . SVG Version: 6.00 Build 0)  -->
<!DOCTYPE svg PUBLIC "-//W3C//DTD SVG 1.1//EN" "http://www.w3.org/Graphics/SVG/1.1/DTD/svg11.dtd">
<svg version="1.1" id="圖層_1" xmlns="http://www.w3.org/2000/svg" xmlns:xlink="http://www.w3.org/1999/xlink" x="0px" y="0px"
	 width="130px" height="325px" viewBox="0 0 130 325" enable-background="new 0 0 130 325" xml:space="preserve">
<g>
	<path fill="#555656" stroke="#000000" stroke-width="5" stroke-miterlimit="10" d="M28.434,202.402v14.763l2.86,5.438
		c0,0,3.932,5.826,6.434,7.769c2.503,1.942,9.653,10.101,9.653,10.101l7.149,8.545c0,0,2.503,11.655,2.503,13.985v21.365v18.647
		l-1.788,13.983l13.227,1.942c0,0,0.358-9.323,0-10.488c-0.356-1.165-1.431-13.596-1.431-13.596l1.59-13.209l-1.947-16.314v-16.316
		l-2.016-15.149v-8.546l7.379-3.107l7.15-7.381l8.937-8.546l5.426-11.653l-6.499-2.138l-5.004,11.071l-5.363,5.438l-8.222,4.662
		l-3.804,3.496v-7.771l2.732-6.215l-0.85-10.158l-8.803-0.524v7.944l-0.714,7.789l-0.715,3.496v5.049l-0.716,6.604v4.272
		l0.358,6.216l-0.358,3.885l-5.004-2.331l-4.647-7.77l-5.005-3.885l-2.86-4.272l-1.787-4.661l-0.358-6.992l-0.382-7.527
		l-7.125-0.478V202.402z"/>
	<path fill="#68BF98" stroke="#000000" stroke-width="5" stroke-miterlimit="10" d="M70.08,4.481c0,0-11.261-1.748-15.55,4.662
		c-4.289,6.409-5.898,12.818-5.362,18.063c0.537,5.244-1.272,9.323-0.099,12.819c1.172,3.496-3.655,8.741-6.336,11.654
		c-2.681,2.913-13.405,5.244-15.55,9.906c-2.145,4.661-7.507,6.409-7.507,11.071c0,4.661,1.072,8.158,0,13.402
		c-1.073,5.244-3.754,6.409,0,10.488c3.753,4.079,5.898,9.906,3.217,12.237s-11.261,8.157-11.797,11.654
		c-0.536,3.496-4.826,10.488-3.217,15.732c1.608,5.245,4.289,16.898,4.289,16.898L7.52,171.715c0,0-3.04,14.566,0,19.229
		c3.04,4.661,12.156,13.401,14.301,12.819c2.144-0.583,21.448,2.386,27.347,0.028c5.898-2.359,22.521-7.604,24.129-8.769
		c1.609-1.166,16.623,1.165,19.842,0.582c3.217-0.582,12.869-3.495,13.941-5.827c1.072-2.33,11.261-9.904,12.869-14.566
		c1.609-4.662,5.362-19.812,5.362-24.473c0-4.662-10.726-16.899-12.333-20.395c-1.609-3.496,4.29-25.638,1.607-35.544
		c-2.68-9.905-18.23-28.552-22.521-34.379c-4.29-5.827,3.754-23.89,0.536-28.552c-3.217-4.661-11.26-19.228-13.404-19.811
		C77.052,11.474,70.08,4.481,70.08,4.481"/>
	<path fill="#4C886B" d="M109.535,130.225c-1.527-3.375,4.067-24.759,1.525-34.325c-2.544-9.566-17.289-27.573-21.355-33.2
		c-4.068-5.627,3.557-23.072,0.508-27.573c-3.053-4.502-10.68-18.57-12.713-19.133c-2.033-0.562-8.645-7.315-8.645-7.315
		L64.74,7.326v188.196c5.592-2.279,4.369-0.864,7.167-2.835c1.545-1.089,15.762,1.125,18.813,0.563
		c3.051-0.563,12.203-3.377,13.221-5.628c1.017-2.251,10.678-9.565,12.204-14.067c1.524-4.502,5.085-19.132,5.085-23.635
		C121.23,145.42,111.061,133.602,109.535,130.225"/>
</g>
</svg>
