<svg id="圖層_1" data-name="圖層 1" xmlns="http://www.w3.org/2000/svg" viewBox="0 0 820.54 581.12"><defs><style>.cls-1{fill:#7fa8cf;}.cls-1,.cls-3,.cls-4{stroke:#212121;stroke-width:6px;}.cls-1,.cls-4{stroke-linecap:round;stroke-linejoin:round;}.cls-2,.cls-4{fill:#406a8f;}.cls-3{fill:#444;stroke-miterlimit:10;}</style></defs><title>machineHand</title><rect class="cls-1" x="791.58" y="463.34" width="488.83" height="124.72" transform="translate(-796.77 394.67) rotate(-30.02)"/><rect class="cls-2" x="815.96" y="544.1" width="485.24" height="34.59" transform="translate(-811.6 410.76) rotate(-30.02)"/><rect class="cls-1" x="1200.66" y="277.41" width="141.85" height="37.51" transform="matrix(0.28, -0.96, 0.96, 0.28, -40.25, 1240.53)"/><rect class="cls-1" x="1346.99" y="166.62" width="37.51" height="141.85" transform="translate(274.08 1364.84) rotate(-82.28)"/><circle class="cls-3" cx="1293.25" cy="228.2" r="31.05" transform="translate(94.7 1237.43) rotate(-76.4)"/><rect class="cls-1" x="1339.72" y="361.58" width="37.51" height="141.85" transform="translate(-0.49 1488.01) rotate(-78.89)"/><path class="cls-3" d="M1335.15,423.45a62.32,62.32,0,1,0-85-23.41A62.32,62.32,0,0,0,1335.15,423.45Z" transform="translate(-672.74 -194.14)"/><polygon class="cls-4" points="685.16 230.93 611.12 100.54 532.76 145.04 606.82 275.43 685.16 230.93"/><rect class="cls-1" x="1295.33" y="281.88" width="14.16" height="176.98" transform="translate(-685.73 497.4) rotate(-29.6)"/><polygon class="cls-1" points="655.25 263.48 567.84 109.58 555.53 116.57 642.93 270.47 655.25 263.48"/><rect class="cls-1" x="1380.36" y="360.23" width="141.85" height="37.51" transform="matrix(0.3, -0.95, 0.95, 0.3, -14.86, 1457.77)"/><circle class="cls-3" cx="1428.8" cy="444.44" r="31.05" transform="translate(-14.44 1533) rotate(-76.29)"/><path class="cls-1" d="M775.84,772.26a100.1,100.1,0,1,0-100.1-100.1A100.1,100.1,0,0,0,775.84,772.26Z" transform="translate(-672.74 -194.14)"/><circle class="cls-4" cx="103.1" cy="478.02" r="51.14"/><ellipse class="cls-3" cx="103.1" cy="478.02" rx="25.02" ry="25.03"/></svg>