<svg xmlns="http://www.w3.org/2000/svg" viewBox="0 0 47 55">
  <defs>
    <style>
      .cls-1 {
        fill: #dc5453;
      }

      .cls-2 {
        fill: #f3de6b;
      }
    </style>
  </defs>
  <title>postmark_3</title>
  <g id="圖層_9" data-name="圖層 9">
    <g>
      <path class="cls-1" d="M7.48,33,8,35.15a1.55,1.55,0,0,1,.81.27,11.16,11.16,0,0,1,2.08.62l.53.2L10.65,33a11.12,11.12,0,0,1-1.21-.41,10.09,10.09,0,0,0-1.2-.4A1.55,1.55,0,0,1,7.48,33Z"/>
      <path class="cls-1" d="M8.59,38,9,39.79a11.16,11.16,0,0,1,2.86.75l.53.2-.72-3.29A11.16,11.16,0,0,1,10.43,37a10.07,10.07,0,0,0-1-.35A1.54,1.54,0,0,1,8.59,38Z"/>
      <path class="cls-1" d="M8.17,31a11.16,11.16,0,0,1,1.68.54l.53.2L5.74,10.67,32.16,4.84,41,45,14.59,50.83l-1-4.4A11.12,11.12,0,0,1,12.42,46a10.09,10.09,0,0,0-1.27-.42,1.51,1.51,0,0,1,.47.8,1.54,1.54,0,0,1-.8,1.7l.47,2.12a1.53,1.53,0,0,1,.64,2.9L12.33,55l2.16-.48a1.54,1.54,0,0,1,3-.66l2-.44a1.54,1.54,0,0,1,3-.66l2-.44a1.54,1.54,0,1,1,3-.66l2-.44a1.54,1.54,0,0,1,3-.66l2-.44a1.54,1.54,0,0,1,3-.66l2-.44a1.54,1.54,0,0,1,3-.66l2.16-.48L44.36,46a1.54,1.54,0,0,1-.65-3L43.26,41a1.54,1.54,0,0,1-.65-3l-.46-2.07a1.54,1.54,0,0,1-.65-3L41,30.92a1.54,1.54,0,0,1-.65-3l-.46-2.07a1.54,1.54,0,0,1-.65-3l-.46-2.07a1.54,1.54,0,0,1-.65-3l-.46-2.07a1.54,1.54,0,0,1-.65-3l-.46-2.07a1.54,1.54,0,0,1-.65-3l-.46-2.07a1.54,1.54,0,0,1-.65-3L34.45,1l-2.18.48a1.53,1.53,0,0,1-3,.66l-2,.45a1.53,1.53,0,0,1-3,.66l-2,.45a1.53,1.53,0,0,1-3,.66l-2,.45a1.53,1.53,0,0,1-3,.66l-2,.45a1.53,1.53,0,0,1-3,.66L7.16,7a1.53,1.53,0,0,1-3,.66L2,8.15,2.41,10a1.53,1.53,0,0,1,.64,2.9l.47,2.12A1.53,1.53,0,0,1,4.16,18l.47,2.12A1.53,1.53,0,0,1,5.27,23l.47,2.12A1.53,1.53,0,0,1,6.38,28l.47,2.12A1.54,1.54,0,0,1,8.17,31Z"/>
      <path class="cls-1" d="M13.36,45.23l-.72-3.29a11.14,11.14,0,0,1-1.21-.41,10.08,10.08,0,0,0-1-.34,1.52,1.52,0,0,1,.06.19,1.54,1.54,0,0,1-.8,1.7L10,44.28a11.16,11.16,0,0,1,2.86.75Z"/>
    </g>
    <g>
      <path class="cls-2" d="M8,37.7a6.85,6.85,0,0,0,3.57-2,6.23,6.23,0,0,1,6.94-1.53,6.89,6.89,0,0,0,7.67-1.69L25.69,32a6.23,6.23,0,0,1-6.94,1.53,6.89,6.89,0,0,0-7.67,1.69,6.23,6.23,0,0,1-6.94,1.53c-2.65-1.1-2.65-.39-.26.6A6.87,6.87,0,0,0,8,37.7Z"/>
      <path class="cls-2" d="M8.6,40.44a6.85,6.85,0,0,0,3.57-2,6.23,6.23,0,0,1,6.94-1.53,6.89,6.89,0,0,0,7.67-1.69l-.48-.44a6.23,6.23,0,0,1-6.94,1.53A6.89,6.89,0,0,0,11.68,38a6.23,6.23,0,0,1-6.94,1.53c-2.65-1.1-2.65-.39-.26.6A6.87,6.87,0,0,0,8.6,40.44Z"/>
      <path class="cls-2" d="M9.2,43.17a6.85,6.85,0,0,0,3.57-2,6.23,6.23,0,0,1,6.94-1.53,6.89,6.89,0,0,0,7.67-1.69l-.48-.44A6.23,6.23,0,0,1,20,39a6.89,6.89,0,0,0-7.67,1.69,6.23,6.23,0,0,1-6.94,1.53c-2.65-1.1-2.65-.39-.26.6A6.87,6.87,0,0,0,9.2,43.17Z"/>
      <path class="cls-2" d="M9.8,45.91a6.85,6.85,0,0,0,3.57-2,6.23,6.23,0,0,1,6.94-1.53A6.89,6.89,0,0,0,28,40.64l-.48-.44a6.23,6.23,0,0,1-6.94,1.53,6.89,6.89,0,0,0-7.67,1.69A6.23,6.23,0,0,1,6,45c-2.65-1.1-2.65-.39-.26.6A6.87,6.87,0,0,0,9.8,45.91Z"/>
    </g>
  </g>
</svg>
