<svg id="圖層_1" data-name="圖層 1" xmlns="http://www.w3.org/2000/svg" viewBox="0 0 132.13 177.21"><defs><style>.cls-1{fill:#fff;stroke:#212121;stroke-linecap:round;stroke-linejoin:round;stroke-width:6px;}.cls-2{fill:#212121;}</style></defs><title>blackBottle</title><path class="cls-1" d="M531.82,424.69l-1.07,77.57h0c-.15,10.73,26.83,19.8,60.26,20.26s60.64-7.87,60.79-18.6l1.07-77.57Z" transform="translate(-526.32 -348.34)"/><polygon class="cls-1" points="94.53 64.47 94.53 64.46 94.52 64.47 94.53 64.47"/><polygon class="cls-1" points="37.88 63.69 37.89 63.69 37.88 63.68 37.88 63.69"/><path class="cls-1" d="M648.85,405.84l-2.35,12.25,2.28,2.27c-7.83,9.23-30.23,15.68-56.57,15.32s-48.56-7.42-56.13-16.87l2.34-2.2-2-12.31A25.07,25.07,0,0,0,529.55,425h0c1.78,12.23,29,22.27,62.49,22.73s61-8.83,63.1-21h0A25.07,25.07,0,0,0,648.85,405.84Z" transform="translate(-526.32 -348.34)"/><path class="cls-1" d="M592.85,389.15c-32.71-.45-59.38,9.6-59.55,22.45a9.7,9.7,0,0,0,.62,3.51c4.15,11.24,28.61,20.16,58.29,20.57s54.38-7.83,58.84-19a9.7,9.7,0,0,0,.72-3.49C651.94,400.38,625.56,389.6,592.85,389.15Z" transform="translate(-526.32 -348.34)"/><path class="cls-1" d="M601.93,381.82l-18-.25-19.35-.27-.1,7.47L564.2,412h0c6.3,5,16.56,8.35,28.2,8.51s22-2.9,28.42-7.73h0l.32-23.23.1-7.47Z" transform="translate(-526.32 -348.34)"/><ellipse class="cls-1" cx="593.1" cy="371.09" rx="19.75" ry="35.04" transform="translate(-312.44 610.69) rotate(-89.21)"/><ellipse class="cls-1" cx="593.13" cy="368.33" rx="11.93" ry="24.6" transform="translate(-309.64 608.01) rotate(-89.21)"/><path class="cls-2" d="M560.76,465.07s24.91,6.85,61.64-.18l.08,27.07s-29.69,11.45-61.64.18Z" transform="translate(-526.32 -348.34)"/></svg>