<svg id="圖層_1" data-name="圖層 1" xmlns="http://www.w3.org/2000/svg" viewBox="0 0 1919.91 414.19"><defs><style>.cls-1{fill:#212121;}.cls-2{fill:#fff;}.cls-2,.cls-3,.cls-4,.cls-5,.cls-6{stroke:#212121;stroke-width:6px;}.cls-2,.cls-3,.cls-4{stroke-miterlimit:10;}.cls-3,.cls-5{fill:none;}.cls-4,.cls-6{fill:#e58687;}.cls-5,.cls-6{stroke-linecap:round;stroke-linejoin:round;}</style></defs><title>hangPaper</title><rect class="cls-1" y="41.87" width="1919.91" height="8.72"/><path class="cls-2" d="M565.6,502.83v252.1c0,25.21-7.56,90.76-32.77,98.32H202.57s17.65-37.82,25.21-83.19,7.56-267.23,7.56-267.23Z" transform="translate(0 -442.07)"/><path class="cls-2" d="M1696.81,502.83v252.1c0,25.21-7.56,90.76-32.77,98.32H1333.78s17.65-37.82,25.21-83.19,7.56-267.23,7.56-267.23Z" transform="translate(0 -442.07)"/><path class="cls-3" d="M391.14,3h9.17a8,8,0,0,1,8,8V67.51a0,0,0,0,1,0,0H383.14a0,0,0,0,1,0,0V11A8,8,0,0,1,391.14,3Z"/><rect class="cls-4" x="364.26" y="36.04" width="72.38" height="45.63"/><path class="cls-3" d="M397.43,3h9.17a8,8,0,0,1,8,8V67.51a0,0,0,0,1,0,0H389.43a0,0,0,0,1,0,0V11A8,8,0,0,1,397.43,3Z"/><line class="cls-3" x1="364.26" y1="67.51" x2="436.64" y2="67.51"/><path class="cls-5" d="M956.74,3h9.17a8,8,0,0,1,8,8V67.51a0,0,0,0,1,0,0H948.74a0,0,0,0,1,0,0V11A8,8,0,0,1,956.74,3Z"/><rect class="cls-6" x="929.86" y="36.04" width="72.38" height="45.63"/><path class="cls-5" d="M963,3h9.17a8,8,0,0,1,8,8V67.51a0,0,0,0,1,0,0H955a0,0,0,0,1,0,0V11a8,8,0,0,1,8-8Z"/><line class="cls-5" x1="929.86" y1="67.51" x2="1002.24" y2="67.51"/><path class="cls-5" d="M1522.34,3h9.17a8,8,0,0,1,8,8V67.51a0,0,0,0,1,0,0h-25.17a0,0,0,0,1,0,0V11A8,8,0,0,1,1522.34,3Z"/><rect class="cls-6" x="1495.46" y="36.04" width="72.38" height="45.63"/><path class="cls-5" d="M1528.64,3h9.17a8,8,0,0,1,8,8V67.51a0,0,0,0,1,0,0h-25.17a0,0,0,0,1,0,0V11A8,8,0,0,1,1528.64,3Z"/><line class="cls-5" x1="1495.46" y1="67.51" x2="1567.84" y2="67.51"/></svg>