<svg id="圖層_1" data-name="圖層 1" xmlns="http://www.w3.org/2000/svg" viewBox="0 0 359.52 365.67"><defs><style>.cls-1{fill:#fff;}.cls-2{fill:none;stroke:#212121;stroke-linecap:round;stroke-linejoin:round;stroke-width:6px;}</style></defs><title>pen</title><path class="cls-1" d="M848,448.19s18.2-3,27.84-1.52c0,0,31,5.55,73.27,30.89,0,0-18.58-.41-19.38.76,0,0,22.89,3.75,26.54,4.17,1.47.17,1.95.23,4.77,1.85s54.66,32.83,56.36,33.74c.92.49-1.25-.13-4-1s-20.12-5.19-36.79.58c0,0,25.83-3.22,41.88,6.06,3,1.71,3.43,2,4.47,5s1.33,4.44,5.54,5.48,9.87,4.31,17.41,11.59,31.63,32.14,60.56,84.76c0,0-5.49-4.9-12.72-3.77,0,0,19.38,7.12,28,35.2,0,0-3.49-3.25-6.27-3.72,0,0,12.87,5.93,21.81,52.35s5.68,54.08,3.35,63.33c-.22.87-3.76-7.5-4.21-8.14a166.51,166.51,0,0,0-30.09-41.21,6.9,6.9,0,0,1-1.93-3.22c-.28-1.07-7-19.88-9.13-22.66-.5-.66,0,.78.15,1.35s4.94,18.12,4.94,18.12.06.67-2-1.5A279.66,279.66,0,0,0,1077.3,698a334.73,334.73,0,0,1-44-38.64c-6.37-6.74-12.28-12.51-15.82-16.34s-26-18.69-30.58-45.38c-.21-1.25-.54-.21-.43.87a44.74,44.74,0,0,0,9.79,26.25c1.13,1.41-1.42-.23-1.92-.61s-31-22.57-48.33-40c-.37-.38-.2.25.26,1.21s2,3.8,1,3.17-5.55-4.93-18.31-14.93c-1.39-1.09-35.56-24.57-46.7-44.92-1.56-2.84-7.8-11.45-11.21-31.34a143.59,143.59,0,0,0-5.85-23s2.9,13.15,2.76,14.93c0,.22-6.84-19.91-18.62-30.64a9.2,9.2,0,0,1-3.16-6.37S845.88,449,848,448.19Z" transform="translate(-783.67 -408.29)"/><path class="cls-2" d="M1055.35,623.18s-67.89-93.65-268.68-211.89" transform="translate(-783.67 -408.29)"/></svg>